<svg xmlns="http://www.w3.org/2000/svg" width="910" height="376" viewBox="0 0 910 376">
<defs>
  <filter id="shadow" x="-4%" y="-4%" width="108%" height="116%">
    <feDropShadow dx="0" dy="1" stdDeviation="2" flood-color="#000" flood-opacity="0.07"/></filter>
  <filter id="shadow-bound" x="-4%" y="-4%" width="108%" height="116%">
    <feDropShadow dx="0" dy="1.5" stdDeviation="2.5" flood-color="#000" flood-opacity="0.12"/></filter>
  <symbol id="apple" viewBox="0 0 16 16"><path d="M11.182.008C11.148-.03 9.923.023 8.857 1.18c-1.066 1.156-.902 2.482-.878 2.516s1.52.087 2.475-1.258.762-2.391.728-2.43m3.314 11.733c-.048-.096-2.325-1.234-2.113-3.422s1.675-2.789 1.698-2.854-.597-.79-1.254-1.157a3.7 3.7 0 0 0-1.563-.434c-.108-.003-.483-.095-1.254.116-.508.139-1.653.589-1.968.607-.316.018-1.256-.522-2.267-.665-.647-.125-1.333.131-1.824.328-.49.196-1.422.754-2.074 2.237-.652 1.482-.311 3.83-.067 4.56s.625 1.924 1.273 2.796c.576.984 1.34 1.667 1.659 1.899s1.219.386 1.843.067c.502-.308 1.408-.485 1.766-.472.357.013 1.061.154 1.782.539.571.197 1.111.115 1.652-.105.541-.221 1.324-1.059 2.238-2.758q.52-1.185.473-1.282"/></symbol>
  <symbol id="win-icon" viewBox="0 0 16 16">
    <rect x="1" y="2" width="9" height="7" rx="1" fill="none" stroke-width="1.3"/>
    <rect x="6" y="7" width="9" height="7" rx="1" fill="none" stroke-width="1.3"/></symbol>
  <symbol id="audio-icon" viewBox="0 0 16 16">
    <path d="M7 3L3.5 6H1v4h2.5L7 13V3z" stroke-width="1.2" fill="none"/>
    <path d="M10 5.5a3 3 0 010 5M12 3.5a6 6 0 010 9" fill="none" stroke-width="1.2"/></symbol>
  <symbol id="birman" viewBox="0 0 16 16">
    <rect x="1" y="3" width="14" height="10" rx="2" fill="none" stroke-width="1"/>
    <text x="8" y="11.5" text-anchor="middle" font-size="8" font-weight="600">Б</text></symbol>
  <symbol id="karabiner-icon" viewBox="0 0 16 16">
    <rect x="1" y="5" width="5" height="6" rx="1" fill="none" stroke-width="1.2"/>
    <rect x="10" y="5" width="5" height="6" rx="1" fill="none" stroke-width="1.2"/>
    <path d="M6 8h1.5m1 0h1.5M9.5 6.5l1 1.5-1 1.5" fill="none" stroke-width="1.1"/></symbol>
  <style>
    text { font-family: -apple-system, "SF Pro Text", "Helvetica Neue", sans-serif;
           fill: #1d1d1f; }
    .key-label { font-size: 9px; fill: #c7c7cc; }
    .bind-label { font-size: 10px; font-weight: 500; }
    .title { font-size: 18px; font-weight: 600; fill: #1d1d1f; }
    .legend-text { font-size: 10px; fill: #1d1d1f; }
  </style>
</defs>
<rect width="910" height="376" rx="16" fill="white" fill-opacity="0.92"/>
<text x="24" y="42" class="title">Ctrl</text>
<rect x="24" y="60" width="54" height="48" rx="6" fill="#f5f5f7" stroke="#e8e8ed" stroke-width="0.5" filter="url(#shadow)"/>
<text x="51.0" y="87.0" text-anchor="middle" class="key-label">~</text>
<rect x="82" y="60" width="54" height="48" rx="6" fill="#f5f5f7" stroke="#e8e8ed" stroke-width="0.5" filter="url(#shadow)"/>
<text x="109.0" y="87.0" text-anchor="middle" class="key-label">1</text>
<rect x="140" y="60" width="54" height="48" rx="6" fill="#f5f5f7" stroke="#e8e8ed" stroke-width="0.5" filter="url(#shadow)"/>
<text x="167.0" y="87.0" text-anchor="middle" class="key-label">2</text>
<rect x="198" y="60" width="54" height="48" rx="6" fill="#f5f5f7" stroke="#e8e8ed" stroke-width="0.5" filter="url(#shadow)"/>
<text x="225.0" y="87.0" text-anchor="middle" class="key-label">3</text>
<rect x="256" y="60" width="54" height="48" rx="6" fill="#f5f5f7" stroke="#e8e8ed" stroke-width="0.5" filter="url(#shadow)"/>
<text x="283.0" y="87.0" text-anchor="middle" class="key-label">4</text>
<rect x="314" y="60" width="54" height="48" rx="6" fill="#f5f5f7" stroke="#e8e8ed" stroke-width="0.5" filter="url(#shadow)"/>
<text x="341.0" y="87.0" text-anchor="middle" class="key-label">5</text>
<rect x="372" y="60" width="54" height="48" rx="6" fill="#f5f5f7" stroke="#e8e8ed" stroke-width="0.5" filter="url(#shadow)"/>
<text x="399.0" y="87.0" text-anchor="middle" class="key-label">6</text>
<rect x="430" y="60" width="54" height="48" rx="6" fill="#f5f5f7" stroke="#e8e8ed" stroke-width="0.5" filter="url(#shadow)"/>
<text x="457.0" y="87.0" text-anchor="middle" class="key-label">7</text>
<rect x="488" y="60" width="54" height="48" rx="6" fill="#f5f5f7" stroke="#e8e8ed" stroke-width="0.5" filter="url(#shadow)"/>
<text x="515.0" y="87.0" text-anchor="middle" class="key-label">8</text>
<rect x="546" y="60" width="54" height="48" rx="6" fill="#f5f5f7" stroke="#e8e8ed" stroke-width="0.5" filter="url(#shadow)"/>
<text x="573.0" y="87.0" text-anchor="middle" class="key-label">9</text>
<rect x="604" y="60" width="54" height="48" rx="6" fill="#f5f5f7" stroke="#e8e8ed" stroke-width="0.5" filter="url(#shadow)"/>
<text x="631.0" y="87.0" text-anchor="middle" class="key-label">0</text>
<rect x="662" y="60" width="54" height="48" rx="6" fill="#f5f5f7" stroke="#e8e8ed" stroke-width="0.5" filter="url(#shadow)"/>
<text x="689.0" y="87.0" text-anchor="middle" class="key-label">-</text>
<rect x="720" y="60" width="54" height="48" rx="6" fill="#f5f5f7" stroke="#e8e8ed" stroke-width="0.5" filter="url(#shadow)"/>
<text x="747.0" y="87.0" text-anchor="middle" class="key-label">=</text>
<rect x="778" y="60" width="112" height="48" rx="6" fill="#f5f5f7" stroke="#e8e8ed" stroke-width="0.5" filter="url(#shadow)"/>
<text x="834.0" y="87.0" text-anchor="middle" class="key-label">⌫</text>
<rect x="24" y="112" width="83.0" height="48" rx="6" fill="#ffffff" stroke="#d2d2d7" stroke-width="0.5" filter="url(#shadow-bound)"/>
<rect x="24" y="114" width="3" height="44" rx="1.5" fill="#86868b"/>
<use href="#apple" x="58.5" y="116" width="14" height="14" fill="#86868b" stroke="#86868b"/>
<text x="65.5" y="140" text-anchor="middle" class="bind-label" fill="#86868b" font-size="8px">switch tab</text><text x="65.5" y="151" text-anchor="middle" class="bind-label" fill="#86868b" font-size="8px">forward</text>
<text x="102.0" y="155" text-anchor="end" class="key-label">⇥</text>
<rect x="111.0" y="112" width="54" height="48" rx="6" fill="#f5f5f7" stroke="#e8e8ed" stroke-width="0.5" filter="url(#shadow)"/>
<text x="138.0" y="139.0" text-anchor="middle" class="key-label">Q</text>
<rect x="169.0" y="112" width="54" height="48" rx="6" fill="#f5f5f7" stroke="#e8e8ed" stroke-width="0.5" filter="url(#shadow)"/>
<text x="196.0" y="139.0" text-anchor="middle" class="key-label">W</text>
<rect x="227.0" y="112" width="54" height="48" rx="6" fill="#f5f5f7" stroke="#e8e8ed" stroke-width="0.5" filter="url(#shadow)"/>
<text x="254.0" y="139.0" text-anchor="middle" class="key-label">E</text>
<rect x="285.0" y="112" width="54" height="48" rx="6" fill="#f5f5f7" stroke="#e8e8ed" stroke-width="0.5" filter="url(#shadow)"/>
<text x="312.0" y="139.0" text-anchor="middle" class="key-label">R</text>
<rect x="343.0" y="112" width="54" height="48" rx="6" fill="#f5f5f7" stroke="#e8e8ed" stroke-width="0.5" filter="url(#shadow)"/>
<text x="370.0" y="139.0" text-anchor="middle" class="key-label">T</text>
<rect x="401.0" y="112" width="54" height="48" rx="6" fill="#f5f5f7" stroke="#e8e8ed" stroke-width="0.5" filter="url(#shadow)"/>
<text x="428.0" y="139.0" text-anchor="middle" class="key-label">Y</text>
<rect x="459.0" y="112" width="54" height="48" rx="6" fill="#f5f5f7" stroke="#e8e8ed" stroke-width="0.5" filter="url(#shadow)"/>
<text x="486.0" y="139.0" text-anchor="middle" class="key-label">U</text>
<rect x="517.0" y="112" width="54" height="48" rx="6" fill="#f5f5f7" stroke="#e8e8ed" stroke-width="0.5" filter="url(#shadow)"/>
<text x="544.0" y="139.0" text-anchor="middle" class="key-label">I</text>
<rect x="575.0" y="112" width="54" height="48" rx="6" fill="#f5f5f7" stroke="#e8e8ed" stroke-width="0.5" filter="url(#shadow)"/>
<text x="602.0" y="139.0" text-anchor="middle" class="key-label">O</text>
<rect x="633.0" y="112" width="54" height="48" rx="6" fill="#f5f5f7" stroke="#e8e8ed" stroke-width="0.5" filter="url(#shadow)"/>
<text x="660.0" y="139.0" text-anchor="middle" class="key-label">P</text>
<rect x="691.0" y="112" width="54" height="48" rx="6" fill="#f5f5f7" stroke="#e8e8ed" stroke-width="0.5" filter="url(#shadow)"/>
<text x="718.0" y="139.0" text-anchor="middle" class="key-label">[</text>
<rect x="749.0" y="112" width="54" height="48" rx="6" fill="#f5f5f7" stroke="#e8e8ed" stroke-width="0.5" filter="url(#shadow)"/>
<text x="776.0" y="139.0" text-anchor="middle" class="key-label">]</text>
<rect x="807.0" y="112" width="83.0" height="48" rx="6" fill="#f5f5f7" stroke="#e8e8ed" stroke-width="0.5" filter="url(#shadow)"/>
<text x="848.5" y="139.0" text-anchor="middle" class="key-label">\</text>
<rect x="125.5" y="164" width="54" height="48" rx="6" fill="#f5f5f7" stroke="#e8e8ed" stroke-width="0.5" filter="url(#shadow)"/>
<text x="152.5" y="191.0" text-anchor="middle" class="key-label">A</text>
<rect x="183.5" y="164" width="54" height="48" rx="6" fill="#f5f5f7" stroke="#e8e8ed" stroke-width="0.5" filter="url(#shadow)"/>
<text x="210.5" y="191.0" text-anchor="middle" class="key-label">S</text>
<rect x="241.5" y="164" width="54" height="48" rx="6" fill="#f5f5f7" stroke="#e8e8ed" stroke-width="0.5" filter="url(#shadow)"/>
<text x="268.5" y="191.0" text-anchor="middle" class="key-label">D</text>
<rect x="299.5" y="164" width="54" height="48" rx="6" fill="#f5f5f7" stroke="#e8e8ed" stroke-width="0.5" filter="url(#shadow)"/>
<text x="326.5" y="191.0" text-anchor="middle" class="key-label">F</text>
<rect x="357.5" y="164" width="54" height="48" rx="6" fill="#f5f5f7" stroke="#e8e8ed" stroke-width="0.5" filter="url(#shadow)"/>
<text x="384.5" y="191.0" text-anchor="middle" class="key-label">G</text>
<rect x="415.5" y="164" width="54" height="48" rx="6" fill="#ffffff" stroke="#d2d2d7" stroke-width="0.5" filter="url(#shadow-bound)"/>
<rect x="415.5" y="166" width="3" height="44" rx="1.5" fill="#86868b"/>
<use href="#apple" x="435.5" y="168" width="14" height="14" fill="#86868b" stroke="#86868b"/>
<text x="442.5" y="192" text-anchor="middle" class="bind-label" fill="#86868b" font-size="8px">cut letter to</text><text x="442.5" y="203" text-anchor="middle" class="bind-label" fill="#86868b" font-size="8px">the left</text>
<text x="464.5" y="207" text-anchor="end" class="key-label">H</text>
<rect x="473.5" y="164" width="54" height="48" rx="6" fill="#f5f5f7" stroke="#e8e8ed" stroke-width="0.5" filter="url(#shadow)"/>
<text x="500.5" y="191.0" text-anchor="middle" class="key-label">J</text>
<rect x="531.5" y="164" width="54" height="48" rx="6" fill="#ffffff" stroke="#d2d2d7" stroke-width="0.5" filter="url(#shadow-bound)"/>
<rect x="531.5" y="166" width="3" height="44" rx="1.5" fill="#5ac8fa"/>
<text x="558.5" y="187.0" text-anchor="middle" class="bind-label" fill="#5ac8fa" font-size="7px">cut all text till</text><text x="558.5" y="198.0" text-anchor="middle" class="bind-label" fill="#5ac8fa" font-size="7px">the end of line</text>
<text x="580.5" y="207" text-anchor="end" class="key-label">K</text>
<rect x="589.5" y="164" width="54" height="48" rx="6" fill="#f5f5f7" stroke="#e8e8ed" stroke-width="0.5" filter="url(#shadow)"/>
<text x="616.5" y="191.0" text-anchor="middle" class="key-label">L</text>
<rect x="647.5" y="164" width="54" height="48" rx="6" fill="#f5f5f7" stroke="#e8e8ed" stroke-width="0.5" filter="url(#shadow)"/>
<text x="674.5" y="191.0" text-anchor="middle" class="key-label">;</text>
<rect x="705.5" y="164" width="54" height="48" rx="6" fill="#f5f5f7" stroke="#e8e8ed" stroke-width="0.5" filter="url(#shadow)"/>
<text x="732.5" y="191.0" text-anchor="middle" class="key-label">'</text>
<rect x="763.5" y="164" width="126.5" height="48" rx="6" fill="#f5f5f7" stroke="#e8e8ed" stroke-width="0.5" filter="url(#shadow)"/>
<text x="826.75" y="191.0" text-anchor="middle" class="key-label">↩</text>
<rect x="154.5" y="216" width="54" height="48" rx="6" fill="#f5f5f7" stroke="#e8e8ed" stroke-width="0.5" filter="url(#shadow)"/>
<text x="181.5" y="243.0" text-anchor="middle" class="key-label">Z</text>
<rect x="212.5" y="216" width="54" height="48" rx="6" fill="#ffffff" stroke="#d2d2d7" stroke-width="0.5" filter="url(#shadow-bound)"/>
<rect x="212.5" y="218" width="3" height="44" rx="1.5" fill="#86868b"/>
<use href="#apple" x="232.5" y="220" width="14" height="14" fill="#86868b" stroke="#86868b"/>
<text x="239.5" y="244" text-anchor="middle" class="bind-label" fill="#86868b" font-size="8px">used</text><text x="239.5" y="255" text-anchor="middle" class="bind-label" fill="#86868b" font-size="8px">sometimes</text>
<text x="261.5" y="259" text-anchor="end" class="key-label">X</text>
<rect x="270.5" y="216" width="54" height="48" rx="6" fill="#f5f5f7" stroke="#e8e8ed" stroke-width="0.5" filter="url(#shadow)"/>
<text x="297.5" y="243.0" text-anchor="middle" class="key-label">C</text>
<rect x="328.5" y="216" width="54" height="48" rx="6" fill="#ffffff" stroke="#d2d2d7" stroke-width="0.5" filter="url(#shadow-bound)"/>
<rect x="328.5" y="218" width="3" height="44" rx="1.5" fill="#86868b"/>
<use href="#apple" x="348.5" y="220" width="14" height="14" fill="#86868b" stroke="#86868b"/>
<text x="355.5" y="244" text-anchor="middle" class="bind-label" fill="#86868b" font-size="8px">Terminal</text><text x="355.5" y="255" text-anchor="middle" class="bind-label" fill="#86868b" font-size="8px">— paste</text>
<text x="377.5" y="259" text-anchor="end" class="key-label">V</text>
<rect x="386.5" y="216" width="54" height="48" rx="6" fill="#f5f5f7" stroke="#e8e8ed" stroke-width="0.5" filter="url(#shadow)"/>
<text x="413.5" y="243.0" text-anchor="middle" class="key-label">B</text>
<rect x="444.5" y="216" width="54" height="48" rx="6" fill="#f5f5f7" stroke="#e8e8ed" stroke-width="0.5" filter="url(#shadow)"/>
<text x="471.5" y="243.0" text-anchor="middle" class="key-label">N</text>
<rect x="502.5" y="216" width="54" height="48" rx="6" fill="#f5f5f7" stroke="#e8e8ed" stroke-width="0.5" filter="url(#shadow)"/>
<text x="529.5" y="243.0" text-anchor="middle" class="key-label">M</text>
<rect x="560.5" y="216" width="54" height="48" rx="6" fill="#f5f5f7" stroke="#e8e8ed" stroke-width="0.5" filter="url(#shadow)"/>
<text x="587.5" y="243.0" text-anchor="middle" class="key-label">,</text>
<rect x="618.5" y="216" width="54" height="48" rx="6" fill="#f5f5f7" stroke="#e8e8ed" stroke-width="0.5" filter="url(#shadow)"/>
<text x="645.5" y="243.0" text-anchor="middle" class="key-label">.</text>
<rect x="676.5" y="216" width="54" height="48" rx="6" fill="#f5f5f7" stroke="#e8e8ed" stroke-width="0.5" filter="url(#shadow)"/>
<text x="703.5" y="243.0" text-anchor="middle" class="key-label">/</text>
<rect x="24" y="268" width="68.5" height="48" rx="6" fill="#e3f0ff" stroke="#007aff" stroke-width="1.5" filter="url(#shadow-bound)"/>
<text x="58.25" y="296.0" text-anchor="middle" class="bind-label" fill="#007aff">⌃</text>
<rect x="241.5" y="268" width="358.5" height="48" rx="6" fill="#ffffff" stroke="#d2d2d7" stroke-width="0.5" filter="url(#shadow-bound)"/>
<rect x="241.5" y="270" width="3" height="44" rx="1.5" fill="#86868b"/>
<use href="#apple" x="413.75" y="272" width="14" height="14" fill="#86868b" stroke="#86868b"/>
<text x="420.75" y="296" text-anchor="middle" class="bind-label" fill="#86868b" font-size="9px">change language</text><text x="420.75" y="307" text-anchor="middle" class="bind-label" fill="#86868b" font-size="9px">layout</text>
<text x="595.0" y="311" text-anchor="end" class="key-label"></text>
<rect x="749.0" y="268" width="54" height="48" rx="6" fill="#ffffff" stroke="#d2d2d7" stroke-width="0.5" filter="url(#shadow-bound)"/>
<rect x="749.0" y="270" width="3" height="44" rx="1.5" fill="#86868b"/>
<use href="#apple" x="769.0" y="272" width="14" height="14" fill="#86868b" stroke="#86868b"/>
<text x="776.0" y="296" text-anchor="middle" class="bind-label" fill="#86868b" font-size="8px">jump to workspace</text><text x="776.0" y="307" text-anchor="middle" class="bind-label" fill="#86868b" font-size="8px">to the left</text>
<text x="798.0" y="311" text-anchor="end" class="key-label">←</text>
<rect x="807.0" y="268" width="54" height="48" rx="6" fill="#ffffff" stroke="#d2d2d7" stroke-width="0.5" filter="url(#shadow-bound)"/>
<rect x="807.0" y="270" width="3" height="44" rx="1.5" fill="#86868b"/>
<use href="#apple" x="827.0" y="272" width="14" height="14" fill="#86868b" stroke="#86868b"/>
<text x="834.0" y="296" text-anchor="middle" class="bind-label" fill="#86868b" font-size="8px">show windows of</text><text x="834.0" y="307" text-anchor="middle" class="bind-label" fill="#86868b" font-size="8px">current app</text>
<text x="856.0" y="311" text-anchor="end" class="key-label">↑↓</text>
<rect x="865.0" y="268" width="54" height="48" rx="6" fill="#ffffff" stroke="#d2d2d7" stroke-width="0.5" filter="url(#shadow-bound)"/>
<rect x="865.0" y="270" width="3" height="44" rx="1.5" fill="#86868b"/>
<use href="#apple" x="885.0" y="272" width="14" height="14" fill="#86868b" stroke="#86868b"/>
<text x="892.0" y="296" text-anchor="middle" class="bind-label" fill="#86868b" font-size="8px">jump to workspace</text><text x="892.0" y="307" text-anchor="middle" class="bind-label" fill="#86868b" font-size="8px">to the right</text>
<text x="914.0" y="311" text-anchor="end" class="key-label">→</text>
<rect x="24" y="328" width="10" height="10" rx="2" fill="#34c759"/>
<text x="38" y="337" class="legend-text">Window Mgmt</text>
<rect x="125.5" y="328" width="10" height="10" rx="2" fill="#5ac8fa"/>
<text x="139.5" y="337" class="legend-text">Navigation</text>
<rect x="220.5" y="328" width="10" height="10" rx="2" fill="#86868b"/>
<text x="234.5" y="337" class="legend-text">macOS</text>
</svg>