<svg xmlns="http://www.w3.org/2000/svg" width="922" height="452" viewBox="0 0 922 452">
<defs>
  <filter id="shadow" x="-6%" y="-6%" width="112%" height="120%">
    <feDropShadow dx="0" dy="0.5" stdDeviation="1" flood-color="#000" flood-opacity="0.06"/></filter>
  <filter id="shadow-bound" x="-6%" y="-6%" width="112%" height="120%">
    <feDropShadow dx="0" dy="0.5" stdDeviation="1.5" flood-color="#000" flood-opacity="0.08"/>
    <feDropShadow dx="0" dy="2" stdDeviation="4" flood-color="#000" flood-opacity="0.03"/></filter>
  <filter id="shadow-card" x="-4%" y="-4%" width="108%" height="116%">
    <feDropShadow dx="0" dy="1" stdDeviation="6" flood-color="#000" flood-opacity="0.06"/></filter>
  <symbol id="apple" viewBox="0 0 16 16"><path d="M11.182.008C11.148-.03 9.923.023 8.857 1.18c-1.066 1.156-.902 2.482-.878 2.516s1.52.087 2.475-1.258.762-2.391.728-2.43m3.314 11.733c-.048-.096-2.325-1.234-2.113-3.422s1.675-2.789 1.698-2.854-.597-.79-1.254-1.157a3.7 3.7 0 0 0-1.563-.434c-.108-.003-.483-.095-1.254.116-.508.139-1.653.589-1.968.607-.316.018-1.256-.522-2.267-.665-.647-.125-1.333.131-1.824.328-.49.196-1.422.754-2.074 2.237-.652 1.482-.311 3.83-.067 4.56s.625 1.924 1.273 2.796c.576.984 1.34 1.667 1.659 1.899s1.219.386 1.843.067c.502-.308 1.408-.485 1.766-.472.357.013 1.061.154 1.782.539.571.197 1.111.115 1.652-.105.541-.221 1.324-1.059 2.238-2.758q.52-1.185.473-1.282"/></symbol>
  <symbol id="win-icon" viewBox="0 0 16 16">
    <rect x="1" y="2" width="9" height="7" rx="1" fill="none" stroke-width="1.3"/>
    <rect x="6" y="7" width="9" height="7" rx="1" fill="none" stroke-width="1.3"/></symbol>
  <symbol id="audio-icon" viewBox="0 0 16 16">
    <path d="M7 3L3.5 6H1v4h2.5L7 13V3z" stroke-width="1.2" fill="none"/>
    <path d="M10 5.5a3 3 0 010 5M12 3.5a6 6 0 010 9" fill="none" stroke-width="1.2"/></symbol>
  <symbol id="birman" viewBox="0 0 16 16">
    <rect x="1" y="3" width="14" height="10" rx="2" fill="none" stroke-width="1"/>
    <text x="8" y="11.5" text-anchor="middle" font-size="8" font-weight="600">Б</text></symbol>
  <style>
    text { font-family: -apple-system, "SF Pro Display", system-ui, sans-serif; fill: #1d1d1f; }
    .key-label { font-size: 8px; fill: #aeaeb2; letter-spacing: 0.02em; }
    .bind-label { font-size: 10px; font-weight: 500; letter-spacing: -0.01em; }
    .title { font-size: 15px; font-weight: 600; fill: #1d1d1f; letter-spacing: -0.01em; }
    .legend-text { font-size: 10px; fill: #86868b; font-weight: 400; }
    .detail-text { font-size: 9px; fill: #86868b; }
    .detail-key { font-size: 9px; font-weight: 600; fill: #1d1d1f; letter-spacing: -0.01em; }
    .key-group { cursor: default; }
    .key-group:hover > rect:first-child { stroke: #007aff !important; stroke-width: 1.5px !important; }
    .key-tip { transition: opacity 0.15s ease; }
    .key-group:hover .key-tip { opacity: 1 !important; pointer-events: auto !important; }
  </style>
</defs>
<rect width="922" height="452" fill="none"/>
<text x="28" y="30" class="title">Hyper + Shift + Ctrl</text>
<rect x="4" y="52" width="914" height="276" rx="14" fill="#e8e8ed" stroke="#d1d1d6" stroke-width="0.5"/>
<g class="key-group">
<rect x="28" y="62" width="54" height="48" rx="6" fill="#f5f5f7" stroke="#d5d5da" stroke-width="0.5" filter="url(#shadow)"/>
<text x="55.0" y="89.0" text-anchor="middle" class="key-label">~</text>
<title>~</title>
</g>
<g class="key-group">
<rect x="86" y="62" width="54" height="48" rx="6" fill="#f5f5f7" stroke="#d5d5da" stroke-width="0.5" filter="url(#shadow)"/>
<text x="113.0" y="89.0" text-anchor="middle" class="key-label">1</text>
<title>1</title>
</g>
<g class="key-group">
<rect x="144" y="62" width="54" height="48" rx="6" fill="#f5f5f7" stroke="#d5d5da" stroke-width="0.5" filter="url(#shadow)"/>
<text x="171.0" y="89.0" text-anchor="middle" class="key-label">2</text>
<title>2</title>
</g>
<g class="key-group">
<rect x="202" y="62" width="54" height="48" rx="6" fill="#f5f5f7" stroke="#d5d5da" stroke-width="0.5" filter="url(#shadow)"/>
<text x="229.0" y="89.0" text-anchor="middle" class="key-label">3</text>
<title>3</title>
</g>
<g class="key-group">
<rect x="260" y="62" width="54" height="48" rx="6" fill="#ffffff" stroke="#c7c7cc" stroke-width="0.5" filter="url(#shadow-bound)"/>
<rect x="260" y="64" width="3" height="44" rx="1.5" fill="#a2845e"/>
<text x="287.0" y="90.0" text-anchor="middle" class="bind-label" fill="#a2845e" font-size="10px">⇧⌃F4</text>
<text x="309" y="105" text-anchor="end" class="key-label">4</text>
<title>4: ⇧⌃F4</title>
</g>
<g class="key-group">
<rect x="318" y="62" width="54" height="48" rx="6" fill="#f5f5f7" stroke="#d5d5da" stroke-width="0.5" filter="url(#shadow)"/>
<text x="345.0" y="89.0" text-anchor="middle" class="key-label">5</text>
<title>5</title>
</g>
<g class="key-group">
<rect x="376" y="62" width="54" height="48" rx="6" fill="#f5f5f7" stroke="#d5d5da" stroke-width="0.5" filter="url(#shadow)"/>
<text x="403.0" y="89.0" text-anchor="middle" class="key-label">6</text>
<title>6</title>
</g>
<g class="key-group">
<rect x="434" y="62" width="54" height="48" rx="6" fill="#f5f5f7" stroke="#d5d5da" stroke-width="0.5" filter="url(#shadow)"/>
<text x="461.0" y="89.0" text-anchor="middle" class="key-label">7</text>
<title>7</title>
</g>
<g class="key-group">
<rect x="492" y="62" width="54" height="48" rx="6" fill="#ffffff" stroke="#c7c7cc" stroke-width="0.5" filter="url(#shadow-bound)"/>
<rect x="492" y="64" width="3" height="44" rx="1.5" fill="#a2845e"/>
<text x="519.0" y="90.0" text-anchor="middle" class="bind-label" fill="#a2845e" font-size="10px">⇧⌃F8</text>
<text x="541" y="105" text-anchor="end" class="key-label">8</text>
<title>8: ⇧⌃F8</title>
</g>
<g class="key-group">
<rect x="550" y="62" width="54" height="48" rx="6" fill="#ffffff" stroke="#c7c7cc" stroke-width="0.5" filter="url(#shadow-bound)"/>
<rect x="550" y="64" width="3" height="44" rx="1.5" fill="#a2845e"/>
<text x="577.0" y="90.0" text-anchor="middle" class="bind-label" fill="#a2845e" font-size="10px">⇧⌃F9</text>
<text x="599" y="105" text-anchor="end" class="key-label">9</text>
<title>9: ⇧⌃F9</title>
</g>
<g class="key-group">
<rect x="608" y="62" width="54" height="48" rx="6" fill="#ffffff" stroke="#c7c7cc" stroke-width="0.5" filter="url(#shadow-bound)"/>
<rect x="608" y="64" width="3" height="44" rx="1.5" fill="#a2845e"/>
<text x="635.0" y="90.0" text-anchor="middle" class="bind-label" fill="#a2845e" font-size="10px">⇧⌃F10</text>
<text x="657" y="105" text-anchor="end" class="key-label">0</text>
<title>0: ⇧⌃F10</title>
</g>
<g class="key-group">
<rect x="666" y="62" width="54" height="48" rx="6" fill="#f5f5f7" stroke="#d5d5da" stroke-width="0.5" filter="url(#shadow)"/>
<text x="693.0" y="89.0" text-anchor="middle" class="key-label">-</text>
<title>-</title>
</g>
<g class="key-group">
<rect x="724" y="62" width="54" height="48" rx="6" fill="#f5f5f7" stroke="#d5d5da" stroke-width="0.5" filter="url(#shadow)"/>
<text x="751.0" y="89.0" text-anchor="middle" class="key-label">=</text>
<title>=</title>
</g>
<g class="key-group">
<rect x="782" y="62" width="112" height="48" rx="6" fill="#f5f5f7" stroke="#d5d5da" stroke-width="0.5" filter="url(#shadow)"/>
<text x="838.0" y="89.0" text-anchor="middle" class="key-label">⌫</text>
<title>⌫</title>
</g>
<g class="key-group">
<rect x="28" y="114" width="83.0" height="48" rx="6" fill="#f5f5f7" stroke="#d5d5da" stroke-width="0.5" filter="url(#shadow)"/>
<text x="69.5" y="141.0" text-anchor="middle" class="key-label">⇥</text>
<title>⇥</title>
</g>
<g class="key-group">
<rect x="115.0" y="114" width="54" height="48" rx="6" fill="#ffffff" stroke="#c7c7cc" stroke-width="0.5" filter="url(#shadow-bound)"/>
<rect x="115.0" y="116" width="3" height="44" rx="1.5" fill="#a2845e"/>
<text x="142.0" y="142.0" text-anchor="middle" class="bind-label" fill="#a2845e" font-size="10px">⇪p</text>
<text x="164.0" y="157" text-anchor="end" class="key-label">Q</text>
<title>Q: ⇪p</title>
<g class="key-tip" opacity="0" pointer-events="none">
<rect x="22.0" y="166" width="240" height="34" rx="10" fill="white" stroke="#e5e5ea" stroke-width="0.5" filter="url(#shadow-card)"/>
<polygon points="137.0,166 147.0,166 142.0,161" fill="white" stroke="#e5e5ea" stroke-width="0.5"/>
<polygon points="138.0,166 146.0,166 142.0,162" fill="white"/>
<text x="32.0" y="186" font-size="9px" font-weight="600" fill="#007aff">H</text>
<text x="41.5" y="186" font-size="8px" fill="#1d1d1f">open Music app</text>
</g>
</g>
<g class="key-group">
<rect x="173.0" y="114" width="54" height="48" rx="6" fill="#ffffff" stroke="#c7c7cc" stroke-width="0.5" filter="url(#shadow-bound)"/>
<rect x="173.0" y="116" width="3" height="44" rx="1.5" fill="#ff9500"/>
<text x="200.0" y="144.0" text-anchor="middle" class="bind-label" fill="#ff9500" font-size="18px">Vol ↑</text>
<text x="222.0" y="157" text-anchor="end" class="key-label">W</text>
<title>W: Vol ↑</title>
</g>
<g class="key-group">
<rect x="231.0" y="114" width="54" height="48" rx="6" fill="#ffffff" stroke="#c7c7cc" stroke-width="0.5" filter="url(#shadow-bound)"/>
<rect x="231.0" y="116" width="3" height="44" rx="1.5" fill="#ff9500"/>
<text x="258.0" y="144.0" text-anchor="middle" class="bind-label" fill="#ff9500" font-size="14px">▶/⏸</text>
<text x="280.0" y="157" text-anchor="end" class="key-label">E</text>
<title>E: ▶/⏸</title>
</g>
<g class="key-group">
<rect x="289.0" y="114" width="54" height="48" rx="6" fill="#f5f5f7" stroke="#d5d5da" stroke-width="0.5" filter="url(#shadow)"/>
<text x="316.0" y="141.0" text-anchor="middle" class="key-label">R</text>
<title>R</title>
</g>
<g class="key-group">
<rect x="347.0" y="114" width="54" height="48" rx="6" fill="#f5f5f7" stroke="#d5d5da" stroke-width="0.5" filter="url(#shadow)"/>
<text x="374.0" y="141.0" text-anchor="middle" class="key-label">T</text>
<title>T</title>
</g>
<g class="key-group">
<rect x="405.0" y="114" width="54" height="48" rx="6" fill="#f5f5f7" stroke="#d5d5da" stroke-width="0.5" filter="url(#shadow)"/>
<text x="432.0" y="141.0" text-anchor="middle" class="key-label">Y</text>
<title>Y</title>
</g>
<g class="key-group">
<rect x="463.0" y="114" width="54" height="48" rx="6" fill="#f5f5f7" stroke="#d5d5da" stroke-width="0.5" filter="url(#shadow)"/>
<text x="490.0" y="141.0" text-anchor="middle" class="key-label">U</text>
<title>U</title>
</g>
<g class="key-group">
<rect x="521.0" y="114" width="54" height="48" rx="6" fill="#f5f5f7" stroke="#d5d5da" stroke-width="0.5" filter="url(#shadow)"/>
<text x="548.0" y="141.0" text-anchor="middle" class="key-label">I</text>
<title>I</title>
</g>
<g class="key-group">
<rect x="579.0" y="114" width="54" height="48" rx="6" fill="#ffffff" stroke="#c7c7cc" stroke-width="0.5" filter="url(#shadow-bound)"/>
<rect x="579.0" y="116" width="3" height="44" rx="1.5" fill="#ff9500"/>
<text x="606.0" y="144.0" text-anchor="middle" class="bind-label" fill="#ff9500" font-size="18px">Vol ↑</text>
<text x="628.0" y="157" text-anchor="end" class="key-label">O</text>
<title>O: Vol ↑</title>
</g>
<g class="key-group">
<rect x="637.0" y="114" width="54" height="48" rx="6" fill="#f5f5f7" stroke="#d5d5da" stroke-width="0.5" filter="url(#shadow)"/>
<text x="664.0" y="141.0" text-anchor="middle" class="key-label">P</text>
<title>P</title>
</g>
<g class="key-group">
<rect x="695.0" y="114" width="54" height="48" rx="6" fill="#f5f5f7" stroke="#d5d5da" stroke-width="0.5" filter="url(#shadow)"/>
<text x="722.0" y="141.0" text-anchor="middle" class="key-label">[</text>
<title>[</title>
</g>
<g class="key-group">
<rect x="753.0" y="114" width="54" height="48" rx="6" fill="#f5f5f7" stroke="#d5d5da" stroke-width="0.5" filter="url(#shadow)"/>
<text x="780.0" y="141.0" text-anchor="middle" class="key-label">]</text>
<title>]</title>
</g>
<g class="key-group">
<rect x="811.0" y="114" width="83.0" height="48" rx="6" fill="#f5f5f7" stroke="#d5d5da" stroke-width="0.5" filter="url(#shadow)"/>
<text x="852.5" y="141.0" text-anchor="middle" class="key-label">\</text>
<title>\</title>
</g>
<g class="key-group">
<rect x="28" y="166" width="97.5" height="48" rx="6" fill="#d4e4f7" stroke="#007aff" stroke-width="1" filter="url(#shadow-bound)"/>
<text x="76.75" y="194.0" text-anchor="middle" class="bind-label" fill="#007aff" font-size="14px" font-weight="600">⇪</text>
<title>⇪</title>
</g>
<g class="key-group">
<rect x="129.5" y="166" width="54" height="48" rx="6" fill="#ffffff" stroke="#c7c7cc" stroke-width="0.5" filter="url(#shadow-bound)"/>
<rect x="129.5" y="168" width="3" height="44" rx="1.5" fill="#ff9500"/>
<text x="156.5" y="196.0" text-anchor="middle" class="bind-label" fill="#ff9500" font-size="18px">⏮</text>
<text x="178.5" y="209" text-anchor="end" class="key-label">A</text>
<title>A: ⏮</title>
</g>
<g class="key-group">
<rect x="187.5" y="166" width="54" height="48" rx="6" fill="#ffffff" stroke="#c7c7cc" stroke-width="0.5" filter="url(#shadow-bound)"/>
<rect x="187.5" y="168" width="3" height="44" rx="1.5" fill="#ff9500"/>
<text x="214.5" y="196.0" text-anchor="middle" class="bind-label" fill="#ff9500" font-size="18px">Vol ↓</text>
<text x="236.5" y="209" text-anchor="end" class="key-label">S</text>
<title>S: Vol ↓</title>
</g>
<g class="key-group">
<rect x="245.5" y="166" width="54" height="48" rx="6" fill="#ffffff" stroke="#c7c7cc" stroke-width="0.5" filter="url(#shadow-bound)"/>
<rect x="245.5" y="168" width="3" height="44" rx="1.5" fill="#ff9500"/>
<text x="272.5" y="196.0" text-anchor="middle" class="bind-label" fill="#ff9500" font-size="18px">⏭</text>
<text x="294.5" y="209" text-anchor="end" class="key-label">D</text>
<title>D: ⏭</title>
</g>
<g class="key-group">
<rect x="303.5" y="166" width="54" height="48" rx="6" fill="#f5f5f7" stroke="#d5d5da" stroke-width="0.5" filter="url(#shadow)"/>
<text x="330.5" y="193.0" text-anchor="middle" class="key-label">F</text>
<title>F</title>
</g>
<g class="key-group">
<rect x="361.5" y="166" width="54" height="48" rx="6" fill="#f5f5f7" stroke="#d5d5da" stroke-width="0.5" filter="url(#shadow)"/>
<text x="388.5" y="193.0" text-anchor="middle" class="key-label">G</text>
<title>G</title>
</g>
<g class="key-group">
<rect x="419.5" y="166" width="54" height="48" rx="6" fill="#f5f5f7" stroke="#d5d5da" stroke-width="0.5" filter="url(#shadow)"/>
<text x="446.5" y="193.0" text-anchor="middle" class="key-label">H</text>
<title>H</title>
</g>
<g class="key-group">
<rect x="477.5" y="166" width="54" height="48" rx="6" fill="#f5f5f7" stroke="#d5d5da" stroke-width="0.5" filter="url(#shadow)"/>
<text x="504.5" y="193.0" text-anchor="middle" class="key-label">J</text>
<title>J</title>
</g>
<g class="key-group">
<rect x="535.5" y="166" width="54" height="48" rx="6" fill="#ffffff" stroke="#c7c7cc" stroke-width="0.5" filter="url(#shadow-bound)"/>
<rect x="535.5" y="168" width="3" height="44" rx="1.5" fill="#ff9500"/>
<text x="562.5" y="196.0" text-anchor="middle" class="bind-label" fill="#ff9500" font-size="18px">⏮</text>
<text x="584.5" y="209" text-anchor="end" class="key-label">K</text>
<title>K: ⏮</title>
</g>
<g class="key-group">
<rect x="593.5" y="166" width="54" height="48" rx="6" fill="#ffffff" stroke="#c7c7cc" stroke-width="0.5" filter="url(#shadow-bound)"/>
<rect x="593.5" y="168" width="3" height="44" rx="1.5" fill="#ff9500"/>
<text x="620.5" y="196.0" text-anchor="middle" class="bind-label" fill="#ff9500" font-size="18px">Vol ↓</text>
<text x="642.5" y="209" text-anchor="end" class="key-label">L</text>
<title>L: Vol ↓</title>
</g>
<g class="key-group">
<rect x="651.5" y="166" width="54" height="48" rx="6" fill="#ffffff" stroke="#c7c7cc" stroke-width="0.5" filter="url(#shadow-bound)"/>
<rect x="651.5" y="168" width="3" height="44" rx="1.5" fill="#ff9500"/>
<text x="678.5" y="196.0" text-anchor="middle" class="bind-label" fill="#ff9500" font-size="18px">⏭</text>
<text x="700.5" y="209" text-anchor="end" class="key-label">;</text>
<title>;: ⏭</title>
</g>
<g class="key-group">
<rect x="709.5" y="166" width="54" height="48" rx="6" fill="#f5f5f7" stroke="#d5d5da" stroke-width="0.5" filter="url(#shadow)"/>
<text x="736.5" y="193.0" text-anchor="middle" class="key-label">'</text>
<title>'</title>
</g>
<g class="key-group">
<rect x="767.5" y="166" width="126.5" height="48" rx="6" fill="#f5f5f7" stroke="#d5d5da" stroke-width="0.5" filter="url(#shadow)"/>
<text x="830.75" y="193.0" text-anchor="middle" class="key-label">↩</text>
<title>↩</title>
</g>
<g class="key-group">
<rect x="28" y="218" width="126.5" height="48" rx="6" fill="#d4e4f7" stroke="#007aff" stroke-width="1" filter="url(#shadow-bound)"/>
<text x="91.25" y="246.0" text-anchor="middle" class="bind-label" fill="#007aff" font-size="14px" font-weight="600">⇧</text>
<title>⇧</title>
</g>
<g class="key-group">
<rect x="158.5" y="218" width="54" height="48" rx="6" fill="#ffffff" stroke="#c7c7cc" stroke-width="0.5" filter="url(#shadow-bound)"/>
<rect x="158.5" y="220" width="3" height="44" rx="1.5" fill="#a2845e"/>
<text x="185.5" y="248.0" text-anchor="middle" class="bind-label" fill="#a2845e" font-size="18px">⏪</text>
<text x="207.5" y="261" text-anchor="end" class="key-label">Z</text>
<title>Z: ⏪</title>
</g>
<g class="key-group">
<rect x="216.5" y="218" width="54" height="48" rx="6" fill="#ffffff" stroke="#c7c7cc" stroke-width="0.5" filter="url(#shadow-bound)"/>
<rect x="216.5" y="220" width="3" height="44" rx="1.5" fill="#a2845e"/>
<text x="243.5" y="248.0" text-anchor="middle" class="bind-label" fill="#a2845e" font-size="18px">⏩</text>
<text x="265.5" y="261" text-anchor="end" class="key-label">X</text>
<title>X: ⏩</title>
</g>
<g class="key-group">
<rect x="274.5" y="218" width="54" height="48" rx="6" fill="#f5f5f7" stroke="#d5d5da" stroke-width="0.5" filter="url(#shadow)"/>
<text x="301.5" y="245.0" text-anchor="middle" class="key-label">C</text>
<title>C</title>
</g>
<g class="key-group">
<rect x="332.5" y="218" width="54" height="48" rx="6" fill="#f5f5f7" stroke="#d5d5da" stroke-width="0.5" filter="url(#shadow)"/>
<text x="359.5" y="245.0" text-anchor="middle" class="key-label">V</text>
<title>V</title>
</g>
<g class="key-group">
<rect x="390.5" y="218" width="54" height="48" rx="6" fill="#f5f5f7" stroke="#d5d5da" stroke-width="0.5" filter="url(#shadow)"/>
<text x="417.5" y="245.0" text-anchor="middle" class="key-label">B</text>
<title>B</title>
</g>
<g class="key-group">
<rect x="448.5" y="218" width="54" height="48" rx="6" fill="#f5f5f7" stroke="#d5d5da" stroke-width="0.5" filter="url(#shadow)"/>
<text x="475.5" y="245.0" text-anchor="middle" class="key-label">N</text>
<title>N</title>
</g>
<g class="key-group">
<rect x="506.5" y="218" width="54" height="48" rx="6" fill="#f5f5f7" stroke="#d5d5da" stroke-width="0.5" filter="url(#shadow)"/>
<text x="533.5" y="245.0" text-anchor="middle" class="key-label">M</text>
<title>M</title>
</g>
<g class="key-group">
<rect x="564.5" y="218" width="54" height="48" rx="6" fill="#f5f5f7" stroke="#d5d5da" stroke-width="0.5" filter="url(#shadow)"/>
<text x="591.5" y="245.0" text-anchor="middle" class="key-label">,</text>
<title>,</title>
</g>
<g class="key-group">
<rect x="622.5" y="218" width="54" height="48" rx="6" fill="#f5f5f7" stroke="#d5d5da" stroke-width="0.5" filter="url(#shadow)"/>
<text x="649.5" y="245.0" text-anchor="middle" class="key-label">.</text>
<title>.</title>
</g>
<g class="key-group">
<rect x="680.5" y="218" width="54" height="48" rx="6" fill="#f5f5f7" stroke="#d5d5da" stroke-width="0.5" filter="url(#shadow)"/>
<text x="707.5" y="245.0" text-anchor="middle" class="key-label">/</text>
<title>/</title>
</g>
<g class="key-group">
<rect x="28" y="270" width="68.5" height="48" rx="6" fill="#d4e4f7" stroke="#007aff" stroke-width="1" filter="url(#shadow-bound)"/>
<text x="62.25" y="298.0" text-anchor="middle" class="bind-label" fill="#007aff" font-size="14px" font-weight="600">⌃</text>
<title>⌃</title>
</g>
<g class="key-group">
<rect x="245.5" y="270" width="329.5" height="48" rx="6" fill="#ffffff" stroke="#c7c7cc" stroke-width="0.5" filter="url(#shadow-bound)"/>
<rect x="245.5" y="272" width="3" height="44" rx="1.5" fill="#ff9500"/>
<text x="410.25" y="300.0" text-anchor="middle" class="bind-label" fill="#ff9500" font-size="14px">▶/⏸</text>
<text x="570.0" y="313" text-anchor="end" class="key-label"></text>
<title>: ▶/⏸</title>
</g>
<g class="key-group">
<rect x="724.0" y="270" width="54" height="48" rx="6" fill="#f5f5f7" stroke="#d5d5da" stroke-width="0.5" filter="url(#shadow)"/>
<text x="751.0" y="297.0" text-anchor="middle" class="key-label">←</text>
<title>←</title>
</g>
<g class="key-group">
<rect x="782.0" y="270" width="54" height="22" rx="6" fill="#f5f5f7" stroke="#d5d5da" stroke-width="0.5" filter="url(#shadow)"/>
<text x="809.0" y="284.0" text-anchor="middle" class="key-label">↑</text>
<title>↑</title>
</g>
<g class="key-group">
<rect x="782.0" y="296" width="54" height="22" rx="6" fill="#f5f5f7" stroke="#d5d5da" stroke-width="0.5" filter="url(#shadow)"/>
<text x="809.0" y="310.0" text-anchor="middle" class="key-label">↓</text>
<title>↓</title>
</g>
<g class="key-group">
<rect x="840.0" y="270" width="54" height="48" rx="6" fill="#f5f5f7" stroke="#d5d5da" stroke-width="0.5" filter="url(#shadow)"/>
<text x="867.0" y="297.0" text-anchor="middle" class="key-label">→</text>
<title>→</title>
</g>
<rect x="100.5" y="340" width="619.5" height="88" rx="12" fill="#e8e8ed" stroke="#d1d1d6" stroke-width="0.5" filter="url(#shadow-card)"/>
<circle cx="117.5" cy="354" r="4" fill="#ff9500"/>
<text x="126.5" y="358" class="legend-text">Media / Audio</text>
<line x1="108.5" y1="368" x2="603.5" y2="368" stroke="#d1d1d6" stroke-width="0.5"/>
<text x="108.5" y="386" font-size="12px" font-weight="600" fill="#1d1d1f">⇪⇧⌃q</text>
<text x="178.5" y="386" font-size="12px" font-weight="500" fill="#007aff">H</text>
<text x="288.5" y="386" font-size="11px" fill="#48484a">open Music app</text>
</svg>