<svg xmlns="http://www.w3.org/2000/svg" width="922" height="1206" viewBox="0 0 922 1206">
<defs>
  <filter id="shadow" x="-6%" y="-6%" width="112%" height="120%">
    <feDropShadow dx="0" dy="0.5" stdDeviation="1" flood-color="#000" flood-opacity="0.06"/></filter>
  <filter id="shadow-bound" x="-6%" y="-6%" width="112%" height="120%">
    <feDropShadow dx="0" dy="0.5" stdDeviation="1.5" flood-color="#000" flood-opacity="0.08"/>
    <feDropShadow dx="0" dy="2" stdDeviation="4" flood-color="#000" flood-opacity="0.03"/></filter>
  <filter id="shadow-card" x="-4%" y="-4%" width="108%" height="116%">
    <feDropShadow dx="0" dy="1" stdDeviation="6" flood-color="#000" flood-opacity="0.06"/></filter>
  <symbol id="apple" viewBox="0 0 16 16"><path d="M11.182.008C11.148-.03 9.923.023 8.857 1.18c-1.066 1.156-.902 2.482-.878 2.516s1.52.087 2.475-1.258.762-2.391.728-2.43m3.314 11.733c-.048-.096-2.325-1.234-2.113-3.422s1.675-2.789 1.698-2.854-.597-.79-1.254-1.157a3.7 3.7 0 0 0-1.563-.434c-.108-.003-.483-.095-1.254.116-.508.139-1.653.589-1.968.607-.316.018-1.256-.522-2.267-.665-.647-.125-1.333.131-1.824.328-.49.196-1.422.754-2.074 2.237-.652 1.482-.311 3.83-.067 4.56s.625 1.924 1.273 2.796c.576.984 1.34 1.667 1.659 1.899s1.219.386 1.843.067c.502-.308 1.408-.485 1.766-.472.357.013 1.061.154 1.782.539.571.197 1.111.115 1.652-.105.541-.221 1.324-1.059 2.238-2.758q.52-1.185.473-1.282"/></symbol>
  <symbol id="win-icon" viewBox="0 0 16 16"><rect x="1" y="2" width="9" height="7" rx="1" fill="none" stroke-width="1.3"/>
    <rect x="6" y="7" width="9" height="7" rx="1" fill="none" stroke-width="1.3"/></symbol>
  <symbol id="birman" viewBox="0 0 16 16"><rect x="1" y="3" width="14" height="10" rx="2" fill="none" stroke-width="1"/>
    <text x="8" y="11.5" text-anchor="middle" font-size="8" font-weight="600">Б</text></symbol>
  <symbol id="vol-up" viewBox="0 0 16 16"><path d="M7 3L3.5 6H1v4h2.5L7 13V3z" fill="none" stroke-width="1.2"/><path d="M10 5.5a3 3 0 010 5M12.5 3a7 7 0 010 10" fill="none" stroke-width="1.1"/></symbol>
  <symbol id="vol-dn" viewBox="0 0 16 16"><path d="M7 3L3.5 6H1v4h2.5L7 13V3z" fill="none" stroke-width="1.2"/><path d="M10 6a2.5 2.5 0 010 4" fill="none" stroke-width="1.2"/></symbol>
  <symbol id="track-prev" viewBox="0 0 16 16"><rect x="1" y="4" width="1.5" height="8" rx=".5"/><polygon points="4,8 11,3.5 11,12.5"/></symbol>
  <symbol id="track-next" viewBox="0 0 16 16"><polygon points="5,3.5 5,12.5 12,8"/><rect x="13.5" y="4" width="1.5" height="8" rx=".5"/></symbol>
  <symbol id="play-pause" viewBox="0 0 16 16"><polygon points="1,3 1,13 7,8"/><rect x="9" y="3" width="2.5" height="10" rx=".5"/><rect x="13" y="3" width="2.5" height="10" rx=".5"/></symbol>
  <symbol id="android" viewBox="0 0 16 16"><rect x="3" y="7" width="10" height="7" rx="2"/><circle cx="6" cy="10" r="1"/><circle cx="10" cy="10" r="1"/>
    <line x1="5" y1="3.5" x2="3.5" y2="6" stroke-width="1.2" stroke-linecap="round"/><line x1="11" y1="3.5" x2="12.5" y2="6" stroke-width="1.2" stroke-linecap="round"/></symbol>
  <symbol id="arr-up" viewBox="0 0 24 24"><path d="M12 4 L20 12 L15 12 L15 20 L9 20 L9 12 L4 12 Z"/></symbol>
  <symbol id="arr-dn" viewBox="0 0 24 24"><path d="M12 20 L20 12 L15 12 L15 4 L9 4 L9 12 L4 12 Z"/></symbol>
  <symbol id="arr-l"  viewBox="0 0 24 24"><path d="M4 12 L12 4 L12 9 L20 9 L20 15 L12 15 L12 20 Z"/></symbol>
  <symbol id="arr-r"  viewBox="0 0 24 24"><path d="M20 12 L12 4 L12 9 L4 9 L4 15 L12 15 L12 20 Z"/></symbol>
  <symbol id="icon-browservim" viewBox="0 0 32 32"><circle cx="16" cy="16" r="15" fill="hsl(298, 60%, 50%)"/><text x="16" y="21" text-anchor="middle" font-size="14" font-weight="700" fill="white" font-family="-apple-system, system-ui, sans-serif">B</text></symbol>
  <symbol id="icon-shottr" viewBox="0 0 32 32"><circle cx="16" cy="16" r="15" fill="hsl(104, 60%, 50%)"/><text x="16" y="21" text-anchor="middle" font-size="14" font-weight="700" fill="white" font-family="-apple-system, system-ui, sans-serif">S</text></symbol>
  <symbol id="icon-marta" viewBox="0 0 32 32"><circle cx="16" cy="16" r="15" fill="hsl(171, 60%, 50%)"/><text x="16" y="21" text-anchor="middle" font-size="14" font-weight="700" fill="white" font-family="-apple-system, system-ui, sans-serif">M</text></symbol>
  <symbol id="icon-telegram" viewBox="0 0 32 32"><circle cx="16" cy="16" r="15" fill="hsl(273, 60%, 50%)"/><text x="16" y="21" text-anchor="middle" font-size="14" font-weight="700" fill="white" font-family="-apple-system, system-ui, sans-serif">T</text></symbol>
  <symbol id="icon-rider" viewBox="0 0 32 32"><circle cx="16" cy="16" r="15" fill="hsl(202, 60%, 50%)"/><text x="16" y="21" text-anchor="middle" font-size="14" font-weight="700" fill="white" font-family="-apple-system, system-ui, sans-serif">R</text></symbol>
  <symbol id="icon-music" viewBox="0 0 32 32"><circle cx="16" cy="16" r="15" fill="hsl(93, 60%, 50%)"/><text x="16" y="21" text-anchor="middle" font-size="14" font-weight="700" fill="white" font-family="-apple-system, system-ui, sans-serif">M</text></symbol>
  <symbol id="icon-youtube" viewBox="0 0 32 32"><circle cx="16" cy="16" r="15" fill="hsl(323, 60%, 50%)"/><text x="16" y="21" text-anchor="middle" font-size="14" font-weight="700" fill="white" font-family="-apple-system, system-ui, sans-serif">Y</text></symbol>
  <symbol id="icon-browser-vim" viewBox="0 0 32 32"><circle cx="16" cy="16" r="15" fill="hsl(2, 60%, 50%)"/><text x="16" y="21" text-anchor="middle" font-size="11" font-weight="700" fill="white" font-family="-apple-system, system-ui, sans-serif">BV</text></symbol>
  <symbol id="icon-workbot" viewBox="0 0 32 32"><circle cx="16" cy="16" r="15" fill="hsl(126, 60%, 50%)"/><text x="16" y="21" text-anchor="middle" font-size="14" font-weight="700" fill="white" font-family="-apple-system, system-ui, sans-serif">W</text></symbol>
  <symbol id="icon-system-settings" viewBox="0 0 32 32"><circle cx="16" cy="16" r="15" fill="hsl(292, 60%, 50%)"/><text x="16" y="21" text-anchor="middle" font-size="11" font-weight="700" fill="white" font-family="-apple-system, system-ui, sans-serif">SS</text></symbol>
  <symbol id="icon-iina" viewBox="0 0 32 32"><circle cx="16" cy="16" r="15" fill="hsl(259, 60%, 50%)"/><text x="16" y="21" text-anchor="middle" font-size="14" font-weight="700" fill="white" font-family="-apple-system, system-ui, sans-serif">I</text></symbol>
  <symbol id="icon-mail" viewBox="0 0 32 32"><circle cx="16" cy="16" r="15" fill="hsl(87, 60%, 50%)"/><text x="16" y="21" text-anchor="middle" font-size="14" font-weight="700" fill="white" font-family="-apple-system, system-ui, sans-serif">M</text></symbol>
  <symbol id="icon-xcode" viewBox="0 0 32 32"><circle cx="16" cy="16" r="15" fill="hsl(77, 60%, 50%)"/><text x="16" y="21" text-anchor="middle" font-size="14" font-weight="700" fill="white" font-family="-apple-system, system-ui, sans-serif">X</text></symbol>
  <symbol id="icon-googlemeets" viewBox="0 0 32 32"><circle cx="16" cy="16" r="15" fill="hsl(99, 60%, 50%)"/><text x="16" y="21" text-anchor="middle" font-size="14" font-weight="700" fill="white" font-family="-apple-system, system-ui, sans-serif">G</text></symbol>
  <symbol id="icon-activity-manager" viewBox="0 0 32 32"><circle cx="16" cy="16" r="15" fill="hsl(340, 60%, 50%)"/><text x="16" y="21" text-anchor="middle" font-size="11" font-weight="700" fill="white" font-family="-apple-system, system-ui, sans-serif">AM</text></symbol>
  <symbol id="icon-safari" viewBox="0 0 32 32"><circle cx="16" cy="16" r="15" fill="hsl(88, 60%, 50%)"/><text x="16" y="21" text-anchor="middle" font-size="14" font-weight="700" fill="white" font-family="-apple-system, system-ui, sans-serif">S</text></symbol>
  <symbol id="icon-yandex" viewBox="0 0 32 32"><circle cx="16" cy="16" r="15" fill="hsl(257, 60%, 50%)"/><text x="16" y="21" text-anchor="middle" font-size="14" font-weight="700" fill="white" font-family="-apple-system, system-ui, sans-serif">Y</text></symbol>
  <symbol id="icon-webstorm" viewBox="0 0 32 32"><circle cx="16" cy="16" r="15" fill="hsl(181, 60%, 50%)"/><text x="16" y="21" text-anchor="middle" font-size="14" font-weight="700" fill="white" font-family="-apple-system, system-ui, sans-serif">W</text></symbol>
  <symbol id="icon-simulator" viewBox="0 0 32 32"><circle cx="16" cy="16" r="15" fill="hsl(132, 60%, 50%)"/><text x="16" y="21" text-anchor="middle" font-size="14" font-weight="700" fill="white" font-family="-apple-system, system-ui, sans-serif">S</text></symbol>
  <symbol id="icon-browser-vimt" viewBox="0 0 32 32"><circle cx="16" cy="16" r="15" fill="hsl(82, 60%, 50%)"/><text x="16" y="21" text-anchor="middle" font-size="11" font-weight="700" fill="white" font-family="-apple-system, system-ui, sans-serif">BV</text></symbol>
  <symbol id="icon-karabiner" viewBox="0 0 32 32"><circle cx="16" cy="16" r="15" fill="hsl(95, 60%, 50%)"/><text x="16" y="21" text-anchor="middle" font-size="14" font-weight="700" fill="white" font-family="-apple-system, system-ui, sans-serif">K</text></symbol>
  <symbol id="icon-firefox" viewBox="0 0 32 32"><circle cx="16" cy="16" r="15" fill="hsl(33, 60%, 50%)"/><text x="16" y="21" text-anchor="middle" font-size="14" font-weight="700" fill="white" font-family="-apple-system, system-ui, sans-serif">F</text></symbol>
  <symbol id="icon-visual-studio-code" viewBox="0 0 32 32"><circle cx="16" cy="16" r="15" fill="hsl(15, 60%, 50%)"/><text x="16" y="21" text-anchor="middle" font-size="11" font-weight="700" fill="white" font-family="-apple-system, system-ui, sans-serif">VS</text></symbol>
  <symbol id="icon-workbot" viewBox="0 0 32 32"><circle cx="16" cy="16" r="15" fill="hsl(334, 60%, 50%)"/><text x="16" y="21" text-anchor="middle" font-size="14" font-weight="700" fill="white" font-family="-apple-system, system-ui, sans-serif">W</text></symbol>
  <symbol id="icon-fork" viewBox="0 0 32 32"><circle cx="16" cy="16" r="15" fill="hsl(42, 60%, 50%)"/><text x="16" y="21" text-anchor="middle" font-size="14" font-weight="700" fill="white" font-family="-apple-system, system-ui, sans-serif">F</text></symbol>
  <symbol id="icon-hammerspoon" viewBox="0 0 32 32"><circle cx="16" cy="16" r="15" fill="hsl(179, 60%, 50%)"/><text x="16" y="21" text-anchor="middle" font-size="14" font-weight="700" fill="white" font-family="-apple-system, system-ui, sans-serif">H</text></symbol>
  <symbol id="icon-iina" viewBox="0 0 32 32"><circle cx="16" cy="16" r="15" fill="hsl(355, 60%, 50%)"/><text x="16" y="21" text-anchor="middle" font-size="14" font-weight="700" fill="white" font-family="-apple-system, system-ui, sans-serif">I</text></symbol>
  <symbol id="icon-voiceink" viewBox="0 0 32 32"><circle cx="16" cy="16" r="15" fill="hsl(188, 60%, 50%)"/><text x="16" y="21" text-anchor="middle" font-size="14" font-weight="700" fill="white" font-family="-apple-system, system-ui, sans-serif">V</text></symbol>
  <symbol id="icon-shotr" viewBox="0 0 32 32"><circle cx="16" cy="16" r="15" fill="hsl(288, 60%, 50%)"/><text x="16" y="21" text-anchor="middle" font-size="14" font-weight="700" fill="white" font-family="-apple-system, system-ui, sans-serif">S</text></symbol>
  <symbol id="icon-heroes-of-the-storm" viewBox="0 0 32 32"><circle cx="16" cy="16" r="15" fill="hsl(17, 60%, 50%)"/><text x="16" y="21" text-anchor="middle" font-size="11" font-weight="700" fill="white" font-family="-apple-system, system-ui, sans-serif">HO</text></symbol>
  <symbol id="icon-finder" viewBox="0 0 32 32"><circle cx="16" cy="16" r="15" fill="hsl(150, 60%, 50%)"/><text x="16" y="21" text-anchor="middle" font-size="14" font-weight="700" fill="white" font-family="-apple-system, system-ui, sans-serif">F</text></symbol>
  <symbol id="icon-claude-code" viewBox="0 0 32 32"><circle cx="16" cy="16" r="15" fill="hsl(103, 60%, 50%)"/><text x="16" y="21" text-anchor="middle" font-size="11" font-weight="700" fill="white" font-family="-apple-system, system-ui, sans-serif">CC</text></symbol>
  <symbol id="icon-iterm" viewBox="0 0 32 32"><circle cx="16" cy="16" r="15" fill="hsl(93, 60%, 50%)"/><text x="16" y="21" text-anchor="middle" font-size="14" font-weight="700" fill="white" font-family="-apple-system, system-ui, sans-serif">I</text></symbol>
  <symbol id="icon-activity-monitor" viewBox="0 0 32 32"><circle cx="16" cy="16" r="15" fill="hsl(145, 60%, 50%)"/><text x="16" y="21" text-anchor="middle" font-size="11" font-weight="700" fill="white" font-family="-apple-system, system-ui, sans-serif">AM</text></symbol>
  <symbol id="icon-unix-terminal" viewBox="0 0 32 32"><circle cx="16" cy="16" r="15" fill="hsl(108, 60%, 50%)"/><text x="16" y="21" text-anchor="middle" font-size="11" font-weight="700" fill="white" font-family="-apple-system, system-ui, sans-serif">UT</text></symbol>
  <symbol id="icon-h" viewBox="0 0 32 32"><circle cx="16" cy="16" r="15" fill="hsl(72, 60%, 50%)"/><text x="16" y="21" text-anchor="middle" font-size="14" font-weight="700" fill="white" font-family="-apple-system, system-ui, sans-serif">H</text></symbol>
  <symbol id="icon-atuin" viewBox="0 0 32 32"><circle cx="16" cy="16" r="15" fill="hsl(303, 60%, 50%)"/><text x="16" y="21" text-anchor="middle" font-size="14" font-weight="700" fill="white" font-family="-apple-system, system-ui, sans-serif">A</text></symbol>
  <symbol id="icon-zap" viewBox="0 0 32 32"><circle cx="16" cy="16" r="15" fill="hsl(329, 60%, 50%)"/><text x="16" y="21" text-anchor="middle" font-size="14" font-weight="700" fill="white" font-family="-apple-system, system-ui, sans-serif">Z</text></symbol>
  <symbol id="icon-alttab" viewBox="0 0 32 32"><circle cx="16" cy="16" r="15" fill="hsl(268, 60%, 50%)"/><text x="16" y="21" text-anchor="middle" font-size="14" font-weight="700" fill="white" font-family="-apple-system, system-ui, sans-serif">A</text></symbol>
  <symbol id="icon-maccy" viewBox="0 0 32 32"><circle cx="16" cy="16" r="15" fill="hsl(285, 60%, 50%)"/><text x="16" y="21" text-anchor="middle" font-size="14" font-weight="700" fill="white" font-family="-apple-system, system-ui, sans-serif">M</text></symbol>
  <symbol id="icon-vscode" viewBox="0 0 32 32"><circle cx="16" cy="16" r="15" fill="hsl(218, 60%, 50%)"/><text x="16" y="21" text-anchor="middle" font-size="14" font-weight="700" fill="white" font-family="-apple-system, system-ui, sans-serif">V</text></symbol>
  <symbol id="icon-orbstack" viewBox="0 0 32 32"><circle cx="16" cy="16" r="15" fill="hsl(113, 60%, 50%)"/><text x="16" y="21" text-anchor="middle" font-size="14" font-weight="700" fill="white" font-family="-apple-system, system-ui, sans-serif">O</text></symbol>
  <symbol id="icon-raycast" viewBox="0 0 32 32"><circle cx="16" cy="16" r="15" fill="hsl(65, 60%, 50%)"/><text x="16" y="21" text-anchor="middle" font-size="14" font-weight="700" fill="white" font-family="-apple-system, system-ui, sans-serif">R</text></symbol>
  <symbol id="icon-terminal" viewBox="0 0 32 32"><circle cx="16" cy="16" r="15" fill="hsl(284, 60%, 50%)"/><text x="16" y="21" text-anchor="middle" font-size="14" font-weight="700" fill="white" font-family="-apple-system, system-ui, sans-serif">T</text></symbol>
  <symbol id="icon-zoom-us" viewBox="0 0 32 32"><circle cx="16" cy="16" r="15" fill="hsl(241, 60%, 50%)"/><text x="16" y="21" text-anchor="middle" font-size="11" font-weight="700" fill="white" font-family="-apple-system, system-ui, sans-serif">ZU</text></symbol>
  <symbol id="icon-maccy" viewBox="0 0 32 32"><circle cx="16" cy="16" r="15" fill="hsl(13, 60%, 50%)"/><text x="16" y="21" text-anchor="middle" font-size="14" font-weight="700" fill="white" font-family="-apple-system, system-ui, sans-serif">M</text></symbol>
  <symbol id="icon-birman-layout" viewBox="0 0 32 32"><circle cx="16" cy="16" r="15" fill="hsl(315, 60%, 50%)"/><text x="16" y="21" text-anchor="middle" font-size="11" font-weight="700" fill="white" font-family="-apple-system, system-ui, sans-serif">BL</text></symbol>
  <symbol id="icon-browser" viewBox="0 0 32 32"><circle cx="16" cy="16" r="15" fill="hsl(336, 60%, 50%)"/><text x="16" y="21" text-anchor="middle" font-size="14" font-weight="700" fill="white" font-family="-apple-system, system-ui, sans-serif">B</text></symbol>
  <symbol id="icon-google-chrome" viewBox="0 0 32 32"><circle cx="16" cy="16" r="15" fill="hsl(153, 60%, 50%)"/><text x="16" y="21" text-anchor="middle" font-size="11" font-weight="700" fill="white" font-family="-apple-system, system-ui, sans-serif">GC</text></symbol>
  <symbol id="icon-claude" viewBox="0 0 32 32"><circle cx="16" cy="16" r="15" fill="hsl(230, 60%, 50%)"/><text x="16" y="21" text-anchor="middle" font-size="14" font-weight="700" fill="white" font-family="-apple-system, system-ui, sans-serif">C</text></symbol>
  <symbol id="icon-google-meets" viewBox="0 0 32 32"><circle cx="16" cy="16" r="15" fill="hsl(197, 60%, 50%)"/><text x="16" y="21" text-anchor="middle" font-size="11" font-weight="700" fill="white" font-family="-apple-system, system-ui, sans-serif">GM</text></symbol>
  <style>
    text { font-family: -apple-system, "SF Pro Display", system-ui, sans-serif; fill: #1d1d1f; }
    .key-label { font-size: 8px; fill: #aeaeb2; letter-spacing: 0.02em; }
    .bind-label { font-size: 10px; font-weight: 500; letter-spacing: -0.01em; }
    .title { font-size: 15px; font-weight: 600; fill: #1d1d1f; letter-spacing: -0.01em; }
    .legend-text { font-size: 10px; fill: #86868b; font-weight: 400; }
    .key-group { cursor: default; }
    .key-group:hover > rect:first-child { stroke: #007aff !important; stroke-width: 1.5px !important; }
    .key-tip { transition: opacity 0.15s ease; }
    .key-group:hover .key-tip { opacity: 1 !important; pointer-events: auto !important; }
  </style>
</defs>
<rect width="922" height="1206" fill="none"/>
<text x="28" y="30" class="title">Hyper + Ctrl + Alt</text>
<rect x="4" y="52" width="914" height="276" rx="14" fill="#e8e8ed" stroke="#d1d1d6" stroke-width="0.5"/>
<g class="key-group">
<rect x="28" y="62" width="54" height="48" rx="6" fill="#ffffff" stroke="#c7c7cc" stroke-width="0.5" filter="url(#shadow-bound)"/>
<rect x="28" y="64" width="3" height="44" rx="1.5" fill="#a2845e"/>
<text x="55.0" y="92.0" text-anchor="middle" class="bind-label" fill="#a2845e" font-size="14px">⌃⌥⎋</text>
<text x="77" y="105" text-anchor="end" class="key-label">~</text>
<title>~: ⌃⌥⎋</title>
</g>
<g class="key-group">
<rect x="86" y="62" width="54" height="48" rx="6" fill="#ffffff" stroke="#c7c7cc" stroke-width="0.5" filter="url(#shadow-bound)"/>
<rect x="86" y="64" width="3" height="44" rx="1.5" fill="#a2845e"/>
<text x="113.0" y="92.0" text-anchor="middle" class="bind-label" fill="#a2845e" font-size="14px">⌃⌥F1</text>
<text x="135" y="105" text-anchor="end" class="key-label">1</text>
<title>1: ⌃⌥F1</title>
</g>
<g class="key-group">
<rect x="144" y="62" width="54" height="48" rx="6" fill="#ffffff" stroke="#c7c7cc" stroke-width="0.5" filter="url(#shadow-bound)"/>
<rect x="144" y="64" width="3" height="44" rx="1.5" fill="#a2845e"/>
<text x="171.0" y="92.0" text-anchor="middle" class="bind-label" fill="#a2845e" font-size="14px">⌃⌥F2</text>
<text x="193" y="105" text-anchor="end" class="key-label">2</text>
<title>2: ⌃⌥F2</title>
</g>
<g class="key-group">
<rect x="202" y="62" width="54" height="48" rx="6" fill="#ffffff" stroke="#c7c7cc" stroke-width="0.5" filter="url(#shadow-bound)"/>
<rect x="202" y="64" width="3" height="44" rx="1.5" fill="#a2845e"/>
<text x="229.0" y="92.0" text-anchor="middle" class="bind-label" fill="#a2845e" font-size="14px">⌃⌥F3</text>
<text x="251" y="105" text-anchor="end" class="key-label">3</text>
<title>3: ⌃⌥F3</title>
</g>
<g class="key-group">
<rect x="260" y="62" width="54" height="48" rx="6" fill="#ffffff" stroke="#c7c7cc" stroke-width="0.5" filter="url(#shadow-bound)"/>
<rect x="260" y="64" width="3" height="44" rx="1.5" fill="#a2845e"/>
<text x="287.0" y="92.0" text-anchor="middle" class="bind-label" fill="#a2845e" font-size="14px">⌃⌥F4</text>
<text x="309" y="105" text-anchor="end" class="key-label">4</text>
<title>4: ⌃⌥F4</title>
</g>
<g class="key-group">
<rect x="318" y="62" width="54" height="48" rx="6" fill="#ffffff" stroke="#c7c7cc" stroke-width="0.5" filter="url(#shadow-bound)"/>
<rect x="318" y="64" width="3" height="44" rx="1.5" fill="#a2845e"/>
<text x="345.0" y="92.0" text-anchor="middle" class="bind-label" fill="#a2845e" font-size="14px">⌃⌥F5</text>
<text x="367" y="105" text-anchor="end" class="key-label">5</text>
<title>5: ⌃⌥F5</title>
</g>
<g class="key-group">
<rect x="376" y="62" width="54" height="48" rx="6" fill="#ffffff" stroke="#c7c7cc" stroke-width="0.5" filter="url(#shadow-bound)"/>
<rect x="376" y="64" width="3" height="44" rx="1.5" fill="#a2845e"/>
<text x="403.0" y="92.0" text-anchor="middle" class="bind-label" fill="#a2845e" font-size="14px">⌃⌥F6</text>
<text x="425" y="105" text-anchor="end" class="key-label">6</text>
<title>6: ⌃⌥F6</title>
</g>
<g class="key-group">
<rect x="434" y="62" width="54" height="48" rx="6" fill="#ffffff" stroke="#c7c7cc" stroke-width="0.5" filter="url(#shadow-bound)"/>
<rect x="434" y="64" width="3" height="44" rx="1.5" fill="#a2845e"/>
<text x="461.0" y="92.0" text-anchor="middle" class="bind-label" fill="#a2845e" font-size="14px">⌃⌥F7</text>
<text x="483" y="105" text-anchor="end" class="key-label">7</text>
<title>7: ⌃⌥F7</title>
</g>
<g class="key-group">
<rect x="492" y="62" width="54" height="48" rx="6" fill="#ffffff" stroke="#c7c7cc" stroke-width="0.5" filter="url(#shadow-bound)"/>
<rect x="492" y="64" width="3" height="44" rx="1.5" fill="#a2845e"/>
<text x="519.0" y="92.0" text-anchor="middle" class="bind-label" fill="#a2845e" font-size="14px">⌃⌥F8</text>
<text x="541" y="105" text-anchor="end" class="key-label">8</text>
<title>8: ⌃⌥F8</title>
</g>
<g class="key-group">
<rect x="550" y="62" width="54" height="48" rx="6" fill="#ffffff" stroke="#c7c7cc" stroke-width="0.5" filter="url(#shadow-bound)"/>
<rect x="550" y="64" width="3" height="44" rx="1.5" fill="#a2845e"/>
<text x="577.0" y="92.0" text-anchor="middle" class="bind-label" fill="#a2845e" font-size="14px">⌃⌥F9</text>
<text x="599" y="105" text-anchor="end" class="key-label">9</text>
<title>9: ⌃⌥F9</title>
</g>
<g class="key-group">
<rect x="608" y="62" width="54" height="48" rx="6" fill="#ffffff" stroke="#c7c7cc" stroke-width="0.5" filter="url(#shadow-bound)"/>
<rect x="608" y="64" width="3" height="44" rx="1.5" fill="#a2845e"/>
<text x="635.0" y="92.0" text-anchor="middle" class="bind-label" fill="#a2845e" font-size="14px">⌃⌥F10</text>
<text x="657" y="105" text-anchor="end" class="key-label">0</text>
<title>0: ⌃⌥F10</title>
</g>
<g class="key-group">
<rect x="666" y="62" width="54" height="48" rx="6" fill="#ffffff" stroke="#c7c7cc" stroke-width="0.5" filter="url(#shadow-bound)"/>
<rect x="666" y="64" width="3" height="44" rx="1.5" fill="#a2845e"/>
<text x="693.0" y="92.0" text-anchor="middle" class="bind-label" fill="#a2845e" font-size="14px">⌃⌥F11</text>
<text x="715" y="105" text-anchor="end" class="key-label">-</text>
<title>-: ⌃⌥F11</title>
</g>
<g class="key-group">
<rect x="724" y="62" width="54" height="48" rx="6" fill="#ffffff" stroke="#c7c7cc" stroke-width="0.5" filter="url(#shadow-bound)"/>
<rect x="724" y="64" width="3" height="44" rx="1.5" fill="#a2845e"/>
<text x="751.0" y="92.0" text-anchor="middle" class="bind-label" fill="#a2845e" font-size="14px">⌃⌥F12</text>
<text x="773" y="105" text-anchor="end" class="key-label">=</text>
<title>=: ⌃⌥F12</title>
</g>
<g class="key-group">
<rect x="782" y="62" width="112" height="48" rx="6" fill="#ffffff" stroke="#c7c7cc" stroke-width="0.5" filter="url(#shadow-bound)"/>
<rect x="782" y="64" width="3" height="44" rx="1.5" fill="#a2845e"/>
<text x="838.0" y="92.0" text-anchor="middle" class="bind-label" fill="#a2845e" font-size="14px">⌃⌥⌦</text>
<text x="889" y="105" text-anchor="end" class="key-label">⌫</text>
<title>⌫: ⌃⌥⌦</title>
</g>
<g class="key-group">
<rect x="28" y="114" width="83.0" height="48" rx="6" fill="#ffffff" stroke="#c7c7cc" stroke-width="0.5" filter="url(#shadow-bound)"/>
<rect x="28" y="116" width="3" height="44" rx="1.5" fill="#5ac8fa"/>
<text x="69.5" y="144.0" text-anchor="middle" class="bind-label" fill="#5ac8fa" font-size="14px">⌃⌥↩</text>
<text x="106.0" y="157" text-anchor="end" class="key-label">⇥</text>
<title>⇥: ⌃⌥↩</title>
</g>
<g class="key-group">
<rect x="115.0" y="114" width="54" height="48" rx="6" fill="#ffffff" stroke="#c7c7cc" stroke-width="0.5" filter="url(#shadow-bound)"/>
<rect x="115.0" y="116" width="3" height="44" rx="1.5" fill="#a2845e"/>
<text x="142.0" y="144.0" text-anchor="middle" class="bind-label" fill="#a2845e" font-size="14px">⇧⌘⌫</text>
<text x="164.0" y="157" text-anchor="end" class="key-label">Q</text>
<title>Q: ⇧⌘⌫</title>
<g class="key-tip" opacity="0" pointer-events="none">
<rect x="22.0" y="166" width="240" height="52" rx="10" fill="white" stroke="#e5e5ea" stroke-width="0.5" filter="url(#shadow-card)"/>
<polygon points="137.0,166 147.0,166 142.0,161" fill="white" stroke="#e5e5ea" stroke-width="0.5"/>
<polygon points="138.0,166 146.0,166 142.0,162" fill="white"/>
<use href="#icon-rider" x="32.0" y="175" width="13" height="13"/>
<text x="48.0" y="186" font-size="9px" font-weight="600" fill="#007aff">Rider</text>
<text x="79.5" y="186" font-size="8px" fill="#1d1d1f">go to last edit place</text>
<use href="#icon-visual-studio-code" x="32.0" y="193" width="13" height="13"/>
<text x="48.0" y="204" font-size="9px" font-weight="600" fill="#007aff">VSCode</text>
<text x="85.0" y="204" font-size="8px" fill="#1d1d1f">go to last edit place</text>
</g>
</g>
<g class="key-group">
<rect x="173.0" y="114" width="54" height="48" rx="6" fill="#ffffff" stroke="#c7c7cc" stroke-width="0.5" filter="url(#shadow-bound)"/>
<rect x="173.0" y="116" width="3" height="44" rx="1.5" fill="#5ac8fa"/>
<text x="200.0" y="144.0" text-anchor="middle" class="bind-label" fill="#5ac8fa" font-size="14px">⌃⌥↑</text>
<text x="222.0" y="157" text-anchor="end" class="key-label">W</text>
<title>W: ⌃⌥↑</title>
</g>
<g class="key-group">
<rect x="231.0" y="114" width="54" height="48" rx="6" fill="#ffffff" stroke="#c7c7cc" stroke-width="0.5" filter="url(#shadow-bound)"/>
<rect x="231.0" y="116" width="3" height="44" rx="1.5" fill="#5ac8fa"/>
<text x="258.0" y="144.0" text-anchor="middle" class="bind-label" fill="#5ac8fa" font-size="14px">⌃⌥PgDn</text>
<text x="280.0" y="157" text-anchor="end" class="key-label">E</text>
<title>E: ⌃⌥PgDn</title>
</g>
<g class="key-group">
<rect x="289.0" y="114" width="54" height="48" rx="6" fill="#f5f5f7" stroke="#d5d5da" stroke-width="0.5" filter="url(#shadow)"/>
<text x="316.0" y="141.0" text-anchor="middle" class="key-label">R</text>
<title>R</title>
</g>
<g class="key-group">
<rect x="347.0" y="114" width="54" height="48" rx="6" fill="#f5f5f7" stroke="#d5d5da" stroke-width="0.5" filter="url(#shadow)"/>
<text x="374.0" y="141.0" text-anchor="middle" class="key-label">T</text>
<title>T</title>
</g>
<g class="key-group">
<rect x="405.0" y="114" width="54" height="48" rx="6" fill="#f5f5f7" stroke="#d5d5da" stroke-width="0.5" filter="url(#shadow)"/>
<text x="432.0" y="141.0" text-anchor="middle" class="key-label">Y</text>
<title>Y</title>
</g>
<g class="key-group">
<rect x="463.0" y="114" width="54" height="48" rx="6" fill="#f5f5f7" stroke="#d5d5da" stroke-width="0.5" filter="url(#shadow)"/>
<text x="490.0" y="141.0" text-anchor="middle" class="key-label">U</text>
<title>U</title>
</g>
<g class="key-group">
<rect x="521.0" y="114" width="54" height="48" rx="6" fill="#f5f5f7" stroke="#d5d5da" stroke-width="0.5" filter="url(#shadow)"/>
<text x="548.0" y="141.0" text-anchor="middle" class="key-label">I</text>
<title>I</title>
</g>
<g class="key-group">
<rect x="579.0" y="114" width="54" height="48" rx="6" fill="#ffffff" stroke="#c7c7cc" stroke-width="0.5" filter="url(#shadow-bound)"/>
<rect x="579.0" y="116" width="3" height="44" rx="1.5" fill="#5ac8fa"/>
<text x="606.0" y="144.0" text-anchor="middle" class="bind-label" fill="#5ac8fa" font-size="14px">⌃⌥↑</text>
<text x="628.0" y="157" text-anchor="end" class="key-label">O</text>
<title>O: ⌃⌥↑</title>
</g>
<g class="key-group">
<rect x="637.0" y="114" width="54" height="48" rx="6" fill="#f5f5f7" stroke="#d5d5da" stroke-width="0.5" filter="url(#shadow)"/>
<text x="664.0" y="141.0" text-anchor="middle" class="key-label">P</text>
<title>P</title>
</g>
<g class="key-group">
<rect x="695.0" y="114" width="54" height="48" rx="6" fill="#f5f5f7" stroke="#d5d5da" stroke-width="0.5" filter="url(#shadow)"/>
<text x="722.0" y="141.0" text-anchor="middle" class="key-label">[</text>
<title>[</title>
</g>
<g class="key-group">
<rect x="753.0" y="114" width="54" height="48" rx="6" fill="#f5f5f7" stroke="#d5d5da" stroke-width="0.5" filter="url(#shadow)"/>
<text x="780.0" y="141.0" text-anchor="middle" class="key-label">]</text>
<title>]</title>
</g>
<g class="key-group">
<rect x="811.0" y="114" width="83.0" height="48" rx="6" fill="#f5f5f7" stroke="#d5d5da" stroke-width="0.5" filter="url(#shadow)"/>
<text x="852.5" y="141.0" text-anchor="middle" class="key-label">\</text>
<title>\</title>
</g>
<g class="key-group">
<rect x="28" y="166" width="97.5" height="48" rx="6" fill="#d4e4f7" stroke="#007aff" stroke-width="1" filter="url(#shadow-bound)"/>
<text x="76.75" y="194.0" text-anchor="middle" class="bind-label" fill="#007aff" font-size="14px" font-weight="600">⇪</text>
<title>⇪</title>
</g>
<g class="key-group">
<rect x="129.5" y="166" width="54" height="48" rx="6" fill="#ffffff" stroke="#c7c7cc" stroke-width="0.5" filter="url(#shadow-bound)"/>
<rect x="129.5" y="168" width="3" height="44" rx="1.5" fill="#5ac8fa"/>
<text x="156.5" y="196.0" text-anchor="middle" class="bind-label" fill="#5ac8fa" font-size="14px">⌃⌥←</text>
<text x="178.5" y="209" text-anchor="end" class="key-label">A</text>
<title>A: ⌃⌥←</title>
</g>
<g class="key-group">
<rect x="187.5" y="166" width="54" height="48" rx="6" fill="#ffffff" stroke="#c7c7cc" stroke-width="0.5" filter="url(#shadow-bound)"/>
<rect x="187.5" y="168" width="3" height="44" rx="1.5" fill="#5ac8fa"/>
<text x="214.5" y="196.0" text-anchor="middle" class="bind-label" fill="#5ac8fa" font-size="14px">⌃⌥↓</text>
<text x="236.5" y="209" text-anchor="end" class="key-label">S</text>
<title>S: ⌃⌥↓</title>
</g>
<g class="key-group">
<rect x="245.5" y="166" width="54" height="48" rx="6" fill="#ffffff" stroke="#c7c7cc" stroke-width="0.5" filter="url(#shadow-bound)"/>
<rect x="245.5" y="168" width="3" height="44" rx="1.5" fill="#5ac8fa"/>
<text x="272.5" y="196.0" text-anchor="middle" class="bind-label" fill="#5ac8fa" font-size="14px">⌃⌥→</text>
<text x="294.5" y="209" text-anchor="end" class="key-label">D</text>
<title>D: ⌃⌥→</title>
</g>
<g class="key-group">
<rect x="303.5" y="166" width="54" height="48" rx="6" fill="#f5f5f7" stroke="#d5d5da" stroke-width="0.5" filter="url(#shadow)"/>
<text x="330.5" y="193.0" text-anchor="middle" class="key-label">F</text>
<title>F</title>
</g>
<g class="key-group">
<rect x="361.5" y="166" width="54" height="48" rx="6" fill="#f5f5f7" stroke="#d5d5da" stroke-width="0.5" filter="url(#shadow)"/>
<text x="388.5" y="193.0" text-anchor="middle" class="key-label">G</text>
<title>G</title>
</g>
<g class="key-group">
<rect x="419.5" y="166" width="54" height="48" rx="6" fill="#f5f5f7" stroke="#d5d5da" stroke-width="0.5" filter="url(#shadow)"/>
<text x="446.5" y="193.0" text-anchor="middle" class="key-label">H</text>
<title>H</title>
</g>
<g class="key-group">
<rect x="477.5" y="166" width="54" height="48" rx="6" fill="#f5f5f7" stroke="#d5d5da" stroke-width="0.5" filter="url(#shadow)"/>
<text x="504.5" y="193.0" text-anchor="middle" class="key-label">J</text>
<title>J</title>
</g>
<g class="key-group">
<rect x="535.5" y="166" width="54" height="48" rx="6" fill="#ffffff" stroke="#c7c7cc" stroke-width="0.5" filter="url(#shadow-bound)"/>
<rect x="535.5" y="168" width="3" height="44" rx="1.5" fill="#5ac8fa"/>
<text x="562.5" y="196.0" text-anchor="middle" class="bind-label" fill="#5ac8fa" font-size="14px">⌃⌥←</text>
<text x="584.5" y="209" text-anchor="end" class="key-label">K</text>
<title>K: ⌃⌥←</title>
</g>
<g class="key-group">
<rect x="593.5" y="166" width="54" height="48" rx="6" fill="#ffffff" stroke="#c7c7cc" stroke-width="0.5" filter="url(#shadow-bound)"/>
<rect x="593.5" y="168" width="3" height="44" rx="1.5" fill="#5ac8fa"/>
<text x="620.5" y="196.0" text-anchor="middle" class="bind-label" fill="#5ac8fa" font-size="14px">⌃⌥↓</text>
<text x="642.5" y="209" text-anchor="end" class="key-label">L</text>
<title>L: ⌃⌥↓</title>
</g>
<g class="key-group">
<rect x="651.5" y="166" width="54" height="48" rx="6" fill="#ffffff" stroke="#c7c7cc" stroke-width="0.5" filter="url(#shadow-bound)"/>
<rect x="651.5" y="168" width="3" height="44" rx="1.5" fill="#5ac8fa"/>
<text x="678.5" y="196.0" text-anchor="middle" class="bind-label" fill="#5ac8fa" font-size="14px">⌃⌥→</text>
<text x="700.5" y="209" text-anchor="end" class="key-label">;</text>
<title>;: ⌃⌥→</title>
</g>
<g class="key-group">
<rect x="709.5" y="166" width="54" height="48" rx="6" fill="#f5f5f7" stroke="#d5d5da" stroke-width="0.5" filter="url(#shadow)"/>
<text x="736.5" y="193.0" text-anchor="middle" class="key-label">'</text>
<title>'</title>
</g>
<g class="key-group">
<rect x="767.5" y="166" width="126.5" height="48" rx="6" fill="#f5f5f7" stroke="#d5d5da" stroke-width="0.5" filter="url(#shadow)"/>
<text x="830.75" y="193.0" text-anchor="middle" class="key-label">↩</text>
<title>↩</title>
</g>
<g class="key-group">
<rect x="158.5" y="218" width="54" height="48" rx="6" fill="#f5f5f7" stroke="#d5d5da" stroke-width="0.5" filter="url(#shadow)"/>
<text x="185.5" y="245.0" text-anchor="middle" class="key-label">Z</text>
<title>Z</title>
</g>
<g class="key-group">
<rect x="216.5" y="218" width="54" height="48" rx="6" fill="#f5f5f7" stroke="#d5d5da" stroke-width="0.5" filter="url(#shadow)"/>
<text x="243.5" y="245.0" text-anchor="middle" class="key-label">X</text>
<title>X</title>
</g>
<g class="key-group">
<rect x="274.5" y="218" width="54" height="48" rx="6" fill="#f5f5f7" stroke="#d5d5da" stroke-width="0.5" filter="url(#shadow)"/>
<text x="301.5" y="245.0" text-anchor="middle" class="key-label">C</text>
<title>C</title>
</g>
<g class="key-group">
<rect x="332.5" y="218" width="54" height="48" rx="6" fill="#f5f5f7" stroke="#d5d5da" stroke-width="0.5" filter="url(#shadow)"/>
<text x="359.5" y="245.0" text-anchor="middle" class="key-label">V</text>
<title>V</title>
</g>
<g class="key-group">
<rect x="390.5" y="218" width="54" height="48" rx="6" fill="#f5f5f7" stroke="#d5d5da" stroke-width="0.5" filter="url(#shadow)"/>
<text x="417.5" y="245.0" text-anchor="middle" class="key-label">B</text>
<title>B</title>
</g>
<g class="key-group">
<rect x="448.5" y="218" width="54" height="48" rx="6" fill="#f5f5f7" stroke="#d5d5da" stroke-width="0.5" filter="url(#shadow)"/>
<text x="475.5" y="245.0" text-anchor="middle" class="key-label">N</text>
<title>N</title>
</g>
<g class="key-group">
<rect x="506.5" y="218" width="54" height="48" rx="6" fill="#f5f5f7" stroke="#d5d5da" stroke-width="0.5" filter="url(#shadow)"/>
<text x="533.5" y="245.0" text-anchor="middle" class="key-label">M</text>
<title>M</title>
</g>
<g class="key-group">
<rect x="564.5" y="218" width="54" height="48" rx="6" fill="#f5f5f7" stroke="#d5d5da" stroke-width="0.5" filter="url(#shadow)"/>
<text x="591.5" y="245.0" text-anchor="middle" class="key-label">,</text>
<title>,</title>
</g>
<g class="key-group">
<rect x="622.5" y="218" width="54" height="48" rx="6" fill="#f5f5f7" stroke="#d5d5da" stroke-width="0.5" filter="url(#shadow)"/>
<text x="649.5" y="245.0" text-anchor="middle" class="key-label">.</text>
<title>.</title>
</g>
<g class="key-group">
<rect x="680.5" y="218" width="54" height="48" rx="6" fill="#f5f5f7" stroke="#d5d5da" stroke-width="0.5" filter="url(#shadow)"/>
<text x="707.5" y="245.0" text-anchor="middle" class="key-label">/</text>
<title>/</title>
</g>
<g class="key-group">
<rect x="28" y="270" width="68.5" height="48" rx="6" fill="#d4e4f7" stroke="#007aff" stroke-width="1" filter="url(#shadow-bound)"/>
<text x="62.25" y="298.0" text-anchor="middle" class="bind-label" fill="#007aff" font-size="14px" font-weight="600">⌃</text>
<title>⌃</title>
</g>
<g class="key-group">
<rect x="100.5" y="270" width="68.5" height="48" rx="6" fill="#d4e4f7" stroke="#007aff" stroke-width="1" filter="url(#shadow-bound)"/>
<text x="134.75" y="298.0" text-anchor="middle" class="bind-label" fill="#007aff" font-size="14px" font-weight="600">⌥</text>
<title>⌥</title>
</g>
<g class="key-group">
<rect x="245.5" y="270" width="329.5" height="48" rx="6" fill="#f5f5f7" stroke="#d5d5da" stroke-width="0.5" filter="url(#shadow)"/>
<text x="410.25" y="297.0" text-anchor="middle" class="key-label"></text>
<title></title>
</g>
<g class="key-group">
<rect x="651.5" y="270" width="68.5" height="48" rx="6" fill="#d4e4f7" stroke="#007aff" stroke-width="1" filter="url(#shadow-bound)"/>
<text x="685.75" y="298.0" text-anchor="middle" class="bind-label" fill="#007aff" font-size="14px" font-weight="600">⌥</text>
<title>⌥</title>
</g>
<g class="key-group">
<rect x="724.0" y="270" width="54" height="48" rx="6" fill="#f5f5f7" stroke="#d5d5da" stroke-width="0.5" filter="url(#shadow)"/>
<text x="751.0" y="297.0" text-anchor="middle" class="key-label">←</text>
<title>←</title>
</g>
<g class="key-group">
<rect x="782.0" y="270" width="54" height="22" rx="6" fill="#f5f5f7" stroke="#d5d5da" stroke-width="0.5" filter="url(#shadow)"/>
<text x="809.0" y="284.0" text-anchor="middle" class="key-label">↑</text>
<title>↑</title>
</g>
<g class="key-group">
<rect x="782.0" y="296" width="54" height="22" rx="6" fill="#f5f5f7" stroke="#d5d5da" stroke-width="0.5" filter="url(#shadow)"/>
<text x="809.0" y="310.0" text-anchor="middle" class="key-label">↓</text>
<title>↓</title>
</g>
<g class="key-group">
<rect x="840.0" y="270" width="54" height="48" rx="6" fill="#f5f5f7" stroke="#d5d5da" stroke-width="0.5" filter="url(#shadow)"/>
<text x="867.0" y="297.0" text-anchor="middle" class="key-label">→</text>
<title>→</title>
</g>
<rect x="4" y="340" width="914" height="842" rx="12" fill="#e8e8ed" stroke="#d1d1d6" stroke-width="0.5" filter="url(#shadow-card)"/>
<circle cx="29" cy="354" r="4" fill="#5ac8fa"/>
<text x="38" y="358" class="legend-text">Navigation</text>
<line x1="20" y1="368" x2="906" y2="368" stroke="#d1d1d6" stroke-width="0.5"/>
<text x="20" y="382" font-size="11px" font-weight="600" fill="#48484a">Key</text>
<text x="56" y="382" font-size="11px" font-weight="600" fill="#a2845e">Karabiner</text>
<text x="136" y="382" font-size="11px" font-weight="600" fill="#007aff">Hammerspoon</text>
<text x="291" y="382" font-size="11px" font-weight="600" fill="#48484a">App Shortcuts</text>
<line x1="20" y1="390" x2="906" y2="390" stroke="#d1d1d6" stroke-width="0.3"/>
<text x="20" y="408" font-size="13px" font-weight="700" fill="#1d1d1f">~</text>
<text x="56" y="408" font-size="12px" fill="#a2845e">⌃⌥⎋</text>
<line x1="20" y1="430" x2="906" y2="430" stroke="#d1d1d6" stroke-width="0.3" stroke-dasharray="2,2"/>
<text x="20" y="438" font-size="13px" font-weight="700" fill="#1d1d1f">1</text>
<text x="56" y="438" font-size="12px" fill="#a2845e">⌃⌥F1</text>
<line x1="20" y1="460" x2="906" y2="460" stroke="#d1d1d6" stroke-width="0.3" stroke-dasharray="2,2"/>
<text x="20" y="468" font-size="13px" font-weight="700" fill="#1d1d1f">2</text>
<text x="56" y="468" font-size="12px" fill="#a2845e">⌃⌥F2</text>
<line x1="20" y1="490" x2="906" y2="490" stroke="#d1d1d6" stroke-width="0.3" stroke-dasharray="2,2"/>
<text x="20" y="498" font-size="13px" font-weight="700" fill="#1d1d1f">3</text>
<text x="56" y="498" font-size="12px" fill="#a2845e">⌃⌥F3</text>
<line x1="20" y1="520" x2="906" y2="520" stroke="#d1d1d6" stroke-width="0.3" stroke-dasharray="2,2"/>
<text x="20" y="528" font-size="13px" font-weight="700" fill="#1d1d1f">4</text>
<text x="56" y="528" font-size="12px" fill="#a2845e">⌃⌥F4</text>
<line x1="20" y1="550" x2="906" y2="550" stroke="#d1d1d6" stroke-width="0.3" stroke-dasharray="2,2"/>
<text x="20" y="558" font-size="13px" font-weight="700" fill="#1d1d1f">5</text>
<text x="56" y="558" font-size="12px" fill="#a2845e">⌃⌥F5</text>
<line x1="20" y1="580" x2="906" y2="580" stroke="#d1d1d6" stroke-width="0.3" stroke-dasharray="2,2"/>
<text x="20" y="588" font-size="13px" font-weight="700" fill="#1d1d1f">6</text>
<text x="56" y="588" font-size="12px" fill="#a2845e">⌃⌥F6</text>
<line x1="20" y1="610" x2="906" y2="610" stroke="#d1d1d6" stroke-width="0.3" stroke-dasharray="2,2"/>
<text x="20" y="618" font-size="13px" font-weight="700" fill="#1d1d1f">7</text>
<text x="56" y="618" font-size="12px" fill="#a2845e">⌃⌥F7</text>
<line x1="20" y1="640" x2="906" y2="640" stroke="#d1d1d6" stroke-width="0.3" stroke-dasharray="2,2"/>
<text x="20" y="648" font-size="13px" font-weight="700" fill="#1d1d1f">8</text>
<text x="56" y="648" font-size="12px" fill="#a2845e">⌃⌥F8</text>
<line x1="20" y1="670" x2="906" y2="670" stroke="#d1d1d6" stroke-width="0.3" stroke-dasharray="2,2"/>
<text x="20" y="678" font-size="13px" font-weight="700" fill="#1d1d1f">9</text>
<text x="56" y="678" font-size="12px" fill="#a2845e">⌃⌥F9</text>
<line x1="20" y1="700" x2="906" y2="700" stroke="#d1d1d6" stroke-width="0.3" stroke-dasharray="2,2"/>
<text x="20" y="708" font-size="13px" font-weight="700" fill="#1d1d1f">0</text>
<text x="56" y="708" font-size="12px" fill="#a2845e">⌃⌥F10</text>
<line x1="20" y1="730" x2="906" y2="730" stroke="#d1d1d6" stroke-width="0.3" stroke-dasharray="2,2"/>
<text x="20" y="738" font-size="13px" font-weight="700" fill="#1d1d1f">–</text>
<text x="56" y="738" font-size="12px" fill="#a2845e">⌃⌥F11</text>
<line x1="20" y1="760" x2="906" y2="760" stroke="#d1d1d6" stroke-width="0.3" stroke-dasharray="2,2"/>
<text x="20" y="768" font-size="13px" font-weight="700" fill="#1d1d1f">=</text>
<text x="56" y="768" font-size="12px" fill="#a2845e">⌃⌥F12</text>
<line x1="20" y1="790" x2="906" y2="790" stroke="#d1d1d6" stroke-width="0.3" stroke-dasharray="2,2"/>
<text x="20" y="798" font-size="13px" font-weight="700" fill="#1d1d1f">⌫</text>
<text x="56" y="798" font-size="12px" fill="#a2845e">⌃⌥⌦</text>
<line x1="20" y1="820" x2="906" y2="820" stroke="#d1d1d6" stroke-width="0.3" stroke-dasharray="2,2"/>
<text x="20" y="828" font-size="13px" font-weight="700" fill="#1d1d1f">Tab</text>
<text x="56" y="828" font-size="12px" fill="#a2845e">⌃⌥↩</text>
<line x1="20" y1="850" x2="906" y2="850" stroke="#d1d1d6" stroke-width="0.3" stroke-dasharray="2,2"/>
<text x="20" y="858" font-size="13px" font-weight="700" fill="#1d1d1f">Q</text>
<text x="56" y="858" font-size="12px" fill="#a2845e">⌃⌥PgUp</text>
<use href="#icon-rider" x="291" y="846" width="14" height="14"/>
<text x="309" y="858" font-size="11px" fill="#48484a">Rider — go to last edit place</text>
<use href="#icon-visual-studio-code" x="291" y="870" width="14" height="14"/>
<text x="309" y="882" font-size="11px" fill="#48484a">VSCode — go to last edit place</text>
<line x1="20" y1="904" x2="906" y2="904" stroke="#d1d1d6" stroke-width="0.3" stroke-dasharray="2,2"/>
<text x="20" y="912" font-size="13px" font-weight="700" fill="#1d1d1f">W</text>
<text x="56" y="912" font-size="12px" fill="#a2845e">⌃⌥↑</text>
<line x1="20" y1="934" x2="906" y2="934" stroke="#d1d1d6" stroke-width="0.3" stroke-dasharray="2,2"/>
<text x="20" y="942" font-size="13px" font-weight="700" fill="#1d1d1f">E</text>
<text x="56" y="942" font-size="12px" fill="#a2845e">⌃⌥PgDn</text>
<line x1="20" y1="964" x2="906" y2="964" stroke="#d1d1d6" stroke-width="0.3" stroke-dasharray="2,2"/>
<text x="20" y="972" font-size="13px" font-weight="700" fill="#1d1d1f">O</text>
<text x="56" y="972" font-size="12px" fill="#a2845e">⌃⌥↑</text>
<line x1="20" y1="994" x2="906" y2="994" stroke="#d1d1d6" stroke-width="0.3" stroke-dasharray="2,2"/>
<text x="20" y="1002" font-size="13px" font-weight="700" fill="#1d1d1f">A</text>
<text x="56" y="1002" font-size="12px" fill="#a2845e">⌃⌥←</text>
<line x1="20" y1="1024" x2="906" y2="1024" stroke="#d1d1d6" stroke-width="0.3" stroke-dasharray="2,2"/>
<text x="20" y="1032" font-size="13px" font-weight="700" fill="#1d1d1f">S</text>
<text x="56" y="1032" font-size="12px" fill="#a2845e">⌃⌥↓</text>
<line x1="20" y1="1054" x2="906" y2="1054" stroke="#d1d1d6" stroke-width="0.3" stroke-dasharray="2,2"/>
<text x="20" y="1062" font-size="13px" font-weight="700" fill="#1d1d1f">D</text>
<text x="56" y="1062" font-size="12px" fill="#a2845e">⌃⌥→</text>
<line x1="20" y1="1084" x2="906" y2="1084" stroke="#d1d1d6" stroke-width="0.3" stroke-dasharray="2,2"/>
<text x="20" y="1092" font-size="13px" font-weight="700" fill="#1d1d1f">K</text>
<text x="56" y="1092" font-size="12px" fill="#a2845e">⌃⌥←</text>
<line x1="20" y1="1114" x2="906" y2="1114" stroke="#d1d1d6" stroke-width="0.3" stroke-dasharray="2,2"/>
<text x="20" y="1122" font-size="13px" font-weight="700" fill="#1d1d1f">L</text>
<text x="56" y="1122" font-size="12px" fill="#a2845e">⌃⌥↓</text>
<line x1="20" y1="1144" x2="906" y2="1144" stroke="#d1d1d6" stroke-width="0.3" stroke-dasharray="2,2"/>
<text x="20" y="1152" font-size="13px" font-weight="700" fill="#1d1d1f">;</text>
<text x="56" y="1152" font-size="12px" fill="#a2845e">⌃⌥→</text>
</svg>